<svg xmlns="http://www.w3.org/2000/svg" width="996.001" height="568.505" viewBox="0 0 996.001 568.505">
  <g id="Group_38" data-name="Group 38" transform="translate(0 0)">
    <path id="Path_382" data-name="Path 382" d="M829.685,107.249H630.137a42.42,42.42,0,0,0-41.381,33.09L487.928,587.565a34.284,34.284,0,0,0,31.758,41.783l205.137,10.107a45.293,45.293,0,0,0,46.8-37.176l57.2-316.194,4.255,1.216,10.944-59.931-4.38-1.095L855.6,138.014a26.118,26.118,0,0,0-25.916-30.765Z" transform="translate(-82.727 -107.247)" fill="#001c33"/>
    <path id="Path_383" data-name="Path 383" d="M660.562,118.874H637.269a29.316,29.316,0,0,0-28.642,23.066L511.846,585.518a18.165,18.165,0,0,0,16.559,22l204.473,13.4a23.525,23.525,0,0,0,24.691-19.3l82.584-458.481a20.605,20.605,0,0,0-20.279-24.258h-22.1a9.724,9.724,0,0,0-9.39,7.2h0a8.585,8.585,0,0,1-8.29,6.353h-104.9a14.675,14.675,0,0,1-14.632-13.55Z" transform="translate(-86.881 -109.232)" fill="#3796d6"/>
    <path id="Path_384" data-name="Path 384" d="M1042.787,568.763c-31.908,50.419-22.114,113.86-22.114,113.86s61.527-18.3,93.435-68.724,22.114-113.86,22.114-113.86S1074.7,518.345,1042.787,568.763Z" transform="translate(-173.556 -174.288)" fill="#9cc1da"/>
    <path id="Path_385" data-name="Path 385" d="M1059.925,570.678c-1.765,59.641-45.379,106.742-45.379,106.742s-40.753-49.6-38.989-109.238,45.373-106.742,45.373-106.742S1061.683,511.037,1059.925,570.678Z" transform="translate(-166.089 -167.7)" fill="#3796d6"/>
    <ellipse id="Ellipse_59" data-name="Ellipse 59" cx="18.245" cy="12.419" rx="18.245" ry="12.419" transform="translate(77.918 302.917)" fill="#3796d6"/>
    <path id="Path_386" data-name="Path 386" d="M115.461,487.481s86.663,150.578,84.383,172.31" transform="translate(-19.299 -172.144)" fill="#3796d6"/>
    <path id="Path_387" data-name="Path 387" d="M159.058,500.006v88.085c-18.153-25.153-54.361-51.054-122.213-72.079L159.058,683.88v1.275s.231-.125.661-.368l.208.286s.174-.233.486-.684C174.653,676.142,294.071,601.775,159.058,500.006Z" transform="translate(-5.881 -174.282)" fill="#001c33"/>
    <ellipse id="Ellipse_60" data-name="Ellipse 60" cx="18.245" cy="12.419" rx="18.245" ry="12.419" transform="translate(743.035 302.917)" fill="#3796d6"/>
    <path id="Path_388" data-name="Path 388" d="M917.461,487.481s86.663,150.578,84.383,172.311" transform="translate(-156.182 -172.144)" fill="#3796d6"/>
    <path id="Path_389" data-name="Path 389" d="M961.058,500.006v88.085c-18.153-25.153-54.361-51.054-122.212-72.079L961.058,683.88v1.275s.231-.125.661-.368l.208.286s.175-.233.486-.684C976.65,676.142,1096.072,601.775,961.058,500.006Z" transform="translate(-142.764 -174.282)" fill="#001c33"/>
    <path id="Path_390" data-name="Path 390" d="M43.71,684.245c9.579,17.764,29.908,25.39,29.908,25.39s4.8-21.175-4.779-38.939-29.908-25.39-29.908-25.39S34.131,666.481,43.71,684.245Z" transform="translate(-6.032 -199.082)" fill="#9cc1da"/>
    <path id="Path_391" data-name="Path 391" d="M44.921,683.713c17.293,10.4,23.954,31.07,23.954,31.07S47.5,718.58,30.2,708.176,6.25,677.106,6.25,677.106,27.628,673.308,44.921,683.713Z" transform="translate(-0.659 -204.394)" fill="#3796d6"/>
    <path id="Path_392" data-name="Path 392" d="M733.71,684.245c9.579,17.764,29.908,25.39,29.908,25.39s4.8-21.175-4.779-38.939-29.908-25.39-29.908-25.39S724.131,666.481,733.71,684.245Z" transform="translate(-123.799 -199.082)" fill="#001c33"/>
    <path id="Path_393" data-name="Path 393" d="M734.921,683.713c17.293,10.4,23.954,31.07,23.954,31.07s-21.378,3.8-38.671-6.607-23.954-31.07-23.954-31.07S717.627,673.308,734.921,683.713Z" transform="translate(-118.426 -204.394)" fill="#001c33"/>
    <path id="Path_394" data-name="Path 394" d="M451.71,668.245c9.579,17.764,29.908,25.39,29.908,25.39s4.8-21.175-4.779-38.939-29.908-25.39-29.908-25.39S442.131,650.481,451.71,668.245Z" transform="translate(-75.668 -196.351)" fill="#001c33"/>
    <path id="Path_395" data-name="Path 395" d="M452.921,667.713c17.293,10.4,23.954,31.07,23.954,31.07s-21.378,3.8-38.671-6.607-23.954-31.07-23.954-31.07S435.627,657.308,452.921,667.713Z" transform="translate(-70.295 -201.663)" fill="#3796d6"/>
    <path id="Path_396" data-name="Path 396" d="M326.71,668.245c9.579,17.764,29.908,25.39,29.908,25.39s4.8-21.175-4.779-38.939-29.908-25.39-29.908-25.39S317.131,650.481,326.71,668.245Z" transform="translate(-54.333 -196.351)" fill="#9cc1da"/>
    <path id="Path_397" data-name="Path 397" d="M327.921,667.713c17.293,10.4,23.954,31.07,23.954,31.07s-21.378,3.8-38.671-6.607-23.954-31.07-23.954-31.07S310.627,657.308,327.921,667.713Z" transform="translate(-48.961 -201.663)" fill="#3796d6"/>
    <path id="Path_398" data-name="Path 398" d="M1148.537,684.245c-9.579,17.764-29.908,25.39-29.908,25.39s-4.8-21.175,4.779-38.939,29.908-25.39,29.908-25.39S1158.116,666.481,1148.537,684.245Z" transform="translate(-190.311 -199.082)" fill="#001c33"/>
    <path id="Path_399" data-name="Path 399" d="M1142.07,683.713c-17.293,10.4-23.953,31.07-23.953,31.07s21.378,3.8,38.671-6.607,23.953-31.07,23.953-31.07S1159.362,673.308,1142.07,683.713Z" transform="translate(-190.429 -204.394)" fill="#3796d6"/>
    <path id="Path_400" data-name="Path 400" d="M995.51,689.383s-23.854-7.068-71.3-13.862l.854-14.516c7.141-81.748-48.824-203.533-48.824-203.533a546.473,546.473,0,0,1,31.586,188.813c-7.422-12.581-21.624-26.075-48.7-34.128,0,0,35.454,29.641,45.891,60.807-35.777-4.423-82.129-8.3-138.968-9.44l11.715-27.892L754.92,659.055s-10.4-69.279-30.841-71.745l15.821,67.85s-17.861-13.386-21.926-11.974l10.319,20.006q-9.516.021-19.37.147c4.9-81.646-49.136-199.233-49.136-199.233a546.468,546.468,0,0,1,31.586,188.813c-7.421-12.581-21.624-26.075-48.7-34.128,0,0,24.377,20.381,38.654,45.112-35.9.994-74.861,3.087-116.861,6.622q-7.314-.214-14.871-.367l5.482-13.053,2.121-4.112a1.852,1.852,0,0,0-.362-.077l4.472-10.649-14.527,14.9c-3.264,1.979-6.539,4.232-8.758,5.808-.237-1.4-.569-3.278-1-5.532l14.066-60.322c-9.061,1.093-16.147,15.31-21.23,30.8-5.137-16.672-12.562-32.808-22.239-33.975l14.74,63.212c-.239,1.192-.459,2.319-.658,3.366-4.53-3.265-16.585-11.623-20.051-10.731l-4.246-4.354,10.249,24.4q-7.374.033-14.94.127l-2.51-.279,7.4-17.619L481.36,668.735q-3.968-.422-7.907-.829c-3.381-18.05-13.281-62.2-29.528-64.155l14.613,62.668q-3.627-.35-7.223-.685c-5.219-3.394-11.323-6.86-13.495-6.107l2.639,5.116c-65.063-5.764-122.986-8.076-173.733-8.186l10.319-20.006c-4.065-1.412-21.926,11.974-21.926,11.974l15.821-67.85c-12.714,1.533-21.541,28.9-26.4,49.383-4.567-10.616-10.26-18.852-17.07-19.673l8.913,38.226L217.257,629l11.713,27.891c-56.839,1.137-103.191,5.017-138.968,9.44,10.437-31.166,45.891-60.807,45.891-60.807-27.076,8.053-41.279,21.547-48.7,34.128a546.47,546.47,0,0,1,31.586-188.813S62.813,572.623,69.954,654.371l.854,14.516c-47.446,6.794-71.3,13.862-71.3,13.862l231.861,2.906,2.054,3.982q-45.744,6.07-95.282,14.415l640.916-8.034s-5-1.48-14.953-3.734Z" transform="translate(0.491 -165.89)" fill="#001c33"/>
    <path id="Path_401" data-name="Path 401" d="M220.742,790.7s152.6-22.392,247.138,0" transform="translate(-37.268 -222.199)" fill="#001c33"/>
    <path id="Path_402" data-name="Path 402" d="M924.742,767.583s90.38-22.921,146.375,0" transform="translate(-157.425 -218.213)" fill="#001c33"/>
    <path id="Path_403" data-name="Path 403" d="M723,545.166q-.593,0-1.187-.038l-14.142-.929-138.588-9.08a14.419,14.419,0,0,1-13.121-17.434l72.293-331.331a22.848,22.848,0,0,1,22.2-17.877h136.4a16.223,16.223,0,0,1,15.96,19.1L741.129,530.027a18.453,18.453,0,0,1-3.994,8.543l-.172.414h-.179a18.479,18.479,0,0,1-5.355,4.155l-.1.047A18.44,18.44,0,0,1,723,545.166ZM650.455,170.136a21.179,21.179,0,0,0-20.577,16.572L557.585,518.039A12.725,12.725,0,0,0,569.2,533.464l152.724,10.009a16.737,16.737,0,0,0,8.644-1.761l.095-.044a16.8,16.8,0,0,0,4.846-3.742l.27-.316a16.785,16.785,0,0,0,3.721-7.879L801.181,187.28l.816.147-.816-.147a14.564,14.564,0,0,0-14.327-17.144Z" transform="translate(-94.425 -117.698)" fill="#3f3d56"/>
    <path id="Path_404" data-name="Path 404" d="M574.644,575.944s-26.026,30.351-20.556,32.333S585.1,588.572,583.455,580.9Z" transform="translate(-94.034 -187.243)" fill="#ffb9b9"/>
    <path id="Path_405" data-name="Path 405" d="M761.549,609.861s14.13,37.4,8.312,37.4-22.441-29.09-18.285-35.739Z" transform="translate(-127.757 -193.032)" fill="#ffb9b9"/>
    <path id="Path_406" data-name="Path 406" d="M750.8,328.032c-2.333-3.3-5.2-6.182-7.665-9.386-5.676-7.387-7.64-17.23-15.257-22.895-7.537-5.605-19.5-11.122-28.929-10.68-12.43.582-22.291,10.226-30.86,19.249l-19.645,20.687c-4.737,4.988-9.649,10.284-11.357,16.949-1.641,6.4-.04,13.286,2.965,19.175a46.671,46.671,0,0,0,12.836,15.323c6.576-9.055,15.789-21.558,15.789-21.558l2.145,31.1c11.141,3.692,23.109,4.418,34.849,3.6l3.477-12.751,3.65,12.045c14.03-1.86,28.125-6.7,36.81-17.653C759.211,359.134,759.721,340.648,750.8,328.032Z" transform="translate(-108.217 -137.593)" fill="#001c33"/>
    <circle id="Ellipse_61" data-name="Ellipse 61" cx="25.766" cy="25.766" r="25.766" transform="translate(563.146 166.652)" fill="#ffb9b9"/>
    <path id="Path_407" data-name="Path 407" d="M683.075,354.3s1.662,19.948-9.143,21.61-22.441,0-22.441,6.649,8.312,67.323,8.312,67.323l20.779-1.662,29.09-28.259,15.792-30.753s-19.116-8.312-10.8-33.246Z" transform="translate(-110.787 -149.413)" fill="#ffb9b9"/>
    <path id="Path_408" data-name="Path 408" d="M666.635,440.981l-8.312-22.441,1.662-30.753s18.25-2.493,17.852-17.454l-13.7,5.819-31.584,4.987v29.09s-10.8,17.454,1.663,34.908l5.818,36.571,59.843-4.156L719,452.618l24.1-47.376-24.935-18.285,3.325-4.987-12.718-8.294,1.913,15.775-5.818,9.974S678.271,404.411,666.635,440.981Z" transform="translate(-106.814 -152.15)" fill="#fff"/>
    <path id="Path_409" data-name="Path 409" d="M628.175,385.025l-4.987-1.662s-9.974,4.156-9.974,17.454-39.9,144.621-39.9,144.621l18.285,4.987,24.935-60.674,14.961-50.7Z" transform="translate(-97.445 -154.374)" fill="#fff"/>
    <path id="Path_410" data-name="Path 410" d="M755.135,412.394h6.65s4.156-3.325,3.325,20.779S767.6,584.442,767.6,584.442l-24.1-1.662-5.818-137.14Z" transform="translate(-125.498 -159.302)" fill="#fff"/>
    <path id="Path_411" data-name="Path 411" d="M721.318,597.631,675.9,594.653l-11.038-.721-25.137-1.65c-.382-1.352-.713-2.521-.979-3.5-8.31-30.751.838-73.967.838-73.967s-1.667-4.155,0-6.651.829-1.659-2.5-4.984,0,0,1.659-4.155,0,0,0-3.326a7.31,7.31,0,0,0-1.659-4.992,11.086,11.086,0,0,1,2.222-1.36c15.815-7.58,66.578,1.75,66.578,1.75s-.033.042-.091.124a4.069,4.069,0,0,0,.274,5.308c2.5,2.5-1.659,2.5-2.488,4.984s0,0,.829,2.5-1.667,5.813-1.667,5.813C724.137,527.8,725.265,565.395,721.318,597.631Z" transform="translate(-108.016 -171.956)" fill="#2f2e41"/>
    <path id="Path_412" data-name="Path 412" d="M681.988,614.018,670.95,613.3c1.874-8.517,2.977-13.46,2.977-13.46Z" transform="translate(-114.108 -191.321)" fill="#2f2e41"/>
    <path id="Path_413" data-name="Path 413" d="M676.045,312.953s20.779,24.935,62.336,10.8l-11.636-20.779-27.428-8.312Z" transform="translate(-114.978 -139.236)" fill="#001c33"/>
    <path id="Path_414" data-name="Path 414" d="M438.359,758.893s11.742,9.888,17.923,9.27,17.923-.618,12.979,6.18-25.339,10.506-33.991,11.124S407.458,786.7,408.694,783s2.472-21.013,7.416-22.249S438.359,758.893,438.359,758.893Z" transform="translate(-69.337 -218.468)" fill="#226694"/>
    <path id="Path_415" data-name="Path 415" d="M355.961,746.323s8.653,12.68,14.772,13.746,17.429,4.221,10.84,9.441-27.23,3.31-35.73,1.58-27.12-6.284-24.933-9.523,8.028-19.575,13.123-19.437S355.961,746.323,355.961,746.323Z" transform="translate(-54.334 -215.607)" fill="#226694"/>
    <path id="Path_416" data-name="Path 416" d="M431.664,526.122s7.954,54.473,6.1,64.362-3.09,25.339-3.09,25.339,1.236,12.979,0,19.159-8.652,64.892-8.652,66.128,1.236,4.944,0,8.034-3.708.618,0,5.562,1.236,6.18.618,6.18-24.721,2.472-25.957,0,.618-3.09,0-6.18-1.236-3.708-2.472-4.326-3.708.618-1.854-2.472,6.18-6.8,4.944-8.652.618-15.45.618-15.45,1.236-30.283,1.854-48.824-5.562-37.7-5.562-37.7a70.711,70.711,0,0,1-16.069,41.407c-16.069,19.159-24.1,55-24.1,55s-3.708,5.562-1.854,10.506,7.416,1.854,1.854,4.944-24.721-1.236-26.575-3.09,2.472-4.326,1.236-9.27-6.18-3.708-1.854-6.18,5.562-1.854,5.562-4.326,11.124-56.24,28.429-71.691l1.236-56.24s-15.451-39.553.618-43.261S431.664,526.122,431.664,526.122Z" transform="translate(-55.763 -176.754)" fill="#0e3554"/>
    <path id="Path_417" data-name="Path 417" d="M431.374,349.5s-10.506,25.957-8.034,29.665-30.283-12.36-30.283-12.36,10.506-25.957,10.506-29.047S431.374,349.5,431.374,349.5Z" transform="translate(-66.678 -146.518)" fill="#ffb9b9"/>
    <circle id="Ellipse_62" data-name="Ellipse 62" cx="22.867" cy="22.867" r="22.867" transform="translate(334.104 163.74)" fill="#ffb9b9"/>
    <path id="Path_418" data-name="Path 418" d="M387.714,360.153s16.069-1.854,24.1,8.034,9.27,12.36,9.27,12.36,19.159,30.9,15.451,46.352a44.71,44.71,0,0,0-2.472,4.326c-1.236,2.472-1.236,37.081,0,42.644s2.472,7.416,1.236,15.45,9.888,21.013-3.09,23.485-22.867.618-27.193-4.944-.618-9.27-14.215-9.27a32.7,32.7,0,0,1-22.249-9.27s6.8-7.416,4.326-8.652,0-4.326,1.236-7.416,1.236-5.562-.618-5.562-.618-1.236.618-4.326-21.631-56.24-8.034-71.691,20.395-24.1,20.395-24.1S384.005,358.3,387.714,360.153Z" transform="translate(-61.335 -150.371)" fill="#2f2e41"/>
    <path id="Path_419" data-name="Path 419" d="M429.282,431v27.193l19.777,65.51s12.978,33.991,0,33.991-12.283-32.443-12.283-32.443l-27.888-49.135S397.763,437.18,399,434.089,429.282,431,429.282,431Z" transform="translate(-67.676 -162.504)" fill="#ffb9b9"/>
    <path id="Path_420" data-name="Path 420" d="M418.239,382.559s18.541,7.416,13.6,27.193,0,19.159,0,19.159S406.5,426.438,398.462,432l-1.854-7.416S389.192,381.941,418.239,382.559Z" transform="translate(-67.14 -154.236)" fill="#2f2e41"/>
    <path id="Path_421" data-name="Path 421" d="M430.4,307.876a9.124,9.124,0,0,0,8.57-1.334,6.9,6.9,0,0,0,1.947-8.15c-1.183-2.322-3.715-3.6-6.142-4.547a57.084,57.084,0,0,0-16.728-3.777c-2.734-.194-5.605-.164-8.045,1.085-1.207.618-2.256,1.51-3.451,2.15-2.2,1.177-4.756,1.439-7.132,2.2a17.852,17.852,0,0,0-10.91,10.029,21.511,21.511,0,0,0-1.344,4.978,27.727,27.727,0,0,0,1.442,13.881c2.634,7.014,8.16,13.146,8.472,20.633,3.382-2.453,4.636-6.882,7.346-10.062a13.687,13.687,0,0,1,7.812-4.531,4.351,4.351,0,0,0,2.328-.849,3.749,3.749,0,0,0,.85-1.984l2.314-10.926c.471-2.224,1.066-4.648,2.894-6a8.757,8.757,0,0,1,3.772-1.329,59.151,59.151,0,0,1,9.662-.881" transform="translate(-65.618 -138.435)" fill="#001c33"/>
  </g>
</svg>
