<svg xmlns="http://www.w3.org/2000/svg" width="1029.792" height="735.475" viewBox="0 0 1029.792 735.475">
  <g id="Group_25" data-name="Group 25" transform="translate(0.001)">
    <rect id="Rectangle_41" data-name="Rectangle 41" width="176.358" height="2.11" transform="translate(727.459 634.208)" fill="#9cc1da"/>
    <rect id="Rectangle_42" data-name="Rectangle 42" width="354.582" height="295.796" transform="translate(145.267 66.237) rotate(26.346)" fill="#0e3554"/>
    <rect id="Rectangle_43" data-name="Rectangle 43" width="354.582" height="295.796" transform="translate(131.271 21.448) rotate(26.346)" fill="#001c33"/>
    <path id="Path_38" data-name="Path 38" d="M322.252,248.671l-.756-1.316-86.856,49.928v-50.74l79.833-43.214-.721-1.334-79.112,42.824V195.407l45.479-42.3-1.032-1.111-44.447,41.341V134.988h-1.517V193.4l-48.5-42.706-1,1.139,49.505,43.588v49.39l-83.5-45.868-.731,1.329,84.232,46.27v50.725l-91.976-42.194-.633,1.38,92.608,42.484V357.2h1.517V299.034Z" transform="translate(-9.399 -9.029)" fill="#9cc1da"/>
    <path id="Path_39" data-name="Path 39" d="M302.262,434.583h-.015l-.053-.2-.8-3.087c.614-.129,1.229-.281,1.828-.44-9.156-2.754-18.213-2.033-25.67-.311h-.015c-1.9.432-3.679.941-5.34,1.472.963.167,1.927.326,2.905.455l-.46,1.912h-.063l-3.793,14.193,11.689-.046,23.371-.1Z" transform="translate(-63.086 -80.859)" fill="#9cc1da"/>
    <path id="Path_40" data-name="Path 40" d="M469.3,429.208H112.427V131.5H469.3Zm-355-1.866H467.432V133.37H114.293Z" transform="translate(-52.493 -60.959)" fill="#9cc1da"/>
    <path id="Path_41" data-name="Path 41" d="M510.346,139.924c0,.523-.015,1.039-.061,1.547a21.237,21.237,0,1,1-39.961-11.462,19.519,19.519,0,0,1,1.563-2.511,21.231,21.231,0,0,1,38.383,10.7C510.323,138.764,510.346,139.34,510.346,139.924Z" transform="translate(-76.268 -60.101)" fill="#9cc1da"/>
    <path id="Path_42" data-name="Path 42" d="M517.6,128.982c0,.523-.015,1.039-.061,1.547a21.237,21.237,0,1,1-39.961-11.462,19.525,19.525,0,0,1,1.563-2.511,21.231,21.231,0,0,1,38.382,10.7C517.575,127.822,517.6,128.4,517.6,128.982Z" transform="translate(-76.753 -59.369)" fill="#0e3554"/>
    <path id="Path_43" data-name="Path 43" d="M518.359,130.342c0,.523-.015,1.039-.061,1.547l-31.8-3.823,31.784.546C518.336,129.181,518.359,129.758,518.359,130.342Z" transform="translate(-77.514 -60.729)" fill="#9cc1da"/>
    <path id="Path_44" data-name="Path 44" d="M510.243,141.975l-29.417,3.542a21.286,21.286,0,0,1-2.245-3Z" transform="translate(-76.985 -61.659)" fill="#9cc1da"/>
    <path id="Path_45" data-name="Path 45" d="M501.844,116.774l-24.092,2.9a19.526,19.526,0,0,1,1.563-2.511Z" transform="translate(-76.929 -59.973)" fill="#9cc1da"/>
    <circle id="Ellipse_25" data-name="Ellipse 25" cx="13.654" cy="13.654" r="13.654" transform="translate(342.758 353.662)" fill="#3f3d56"/>
    <circle id="Ellipse_26" data-name="Ellipse 26" cx="13.654" cy="13.654" r="13.654" transform="translate(224.934 59.342)" fill="#9cc1da"/>
    <circle id="Ellipse_27" data-name="Ellipse 27" cx="13.654" cy="13.654" r="13.654" transform="translate(47.431 151.845)" fill="#9cc1da"/>
    <rect id="Rectangle_44" data-name="Rectangle 44" width="42.511" height="42.511" transform="translate(805.817 598.99)" fill="#0e3554"/>
    <path id="Path_46" data-name="Path 46" d="M948.134,734.185H903.386V689.438h44.748Zm-42.511-2.237H945.9V691.675H905.624Z" transform="translate(-105.399 -98.278)" fill="#9cc1da"/>
    <path id="Path_47" data-name="Path 47" d="M764.781,87.376c-17.734-29.965-52.82-31.361-52.82-31.361s-34.189-4.372-56.12,41.265c-20.442,42.537-48.655,83.608-4.542,93.566l7.968-24.8,4.935,26.647a172.616,172.616,0,0,0,18.874.323c47.241-1.525,92.232.446,90.783-16.506C771.933,153.973,781.844,116.209,764.781,87.376Z" transform="translate(-86.975 -55.902)" fill="#001c33"/>
    <path id="Path_48" data-name="Path 48" d="M671.484,391.306l-14-13.321L628.788,341.1l-20.819,9.781,33.8,43.5,14.645,19.361.042.108s23.91,28.692,40.3,16.4S671.484,391.306,671.484,391.306Z" transform="translate(-85.639 -74.978)" fill="#ffb9b9"/>
    <path id="Path_49" data-name="Path 49" d="M803.49,344.9l-14-13.321-15.712,16.4,14.645,19.361.042.108s23.91,28.692,40.3,16.4S803.49,344.9,803.49,344.9Z" transform="translate(-96.73 -74.341)" fill="#ffb9b9"/>
    <path id="Path_50" data-name="Path 50" d="M725.329,255.909l24.593,22.544-15.712,8.88-22.544-27.325Z" transform="translate(-47.602 -17.117)" fill="#9cc1da"/>
    <path id="Path_51" data-name="Path 51" d="M775.969,198.25s9.564-8.2,13.663,18.445S782.8,252.9,782.8,252.9Z" transform="translate(-96.877 -65.344)" fill="#9cc1da"/>
    <circle id="Ellipse_28" data-name="Ellipse 28" cx="36.206" cy="36.206" r="36.206" transform="translate(586.187 31.119)" fill="#ffb9b9"/>
    <path id="Path_52" data-name="Path 52" d="M686.8,150.016s-4.782,23.227-23.91,25.959-49.186,12.3-45.087,30.741,118.865,16.4,118.865,16.4l20.494-31.424s-42.354-10.93-38.255-35.523Z" transform="translate(-86.272 -62.197)" fill="#ffb9b9"/>
    <path id="Path_53" data-name="Path 53" d="M740.582,189.165s-26.984,20.152-90.515,18.786c0,0-35.9,5.786-30.589-12.819,0,0-4.251-6.308-8.35,13.5s-34.84,87.441-32.107,90.174l10.247,10.247,22.543,43.72,23.91-13.663-8.2-17.761s15.712,12.98,23.227-6.148c0,0,6.148,18.445,19.128,19.128s97-23.227,97-23.227-4.782-19.128,0-27.325,12.3-24.593,8.881-36.889L769.616,197.7S744,187.116,740.582,189.165Z" transform="translate(-83.692 -64.798)" fill="#9cc1da"/>
    <path id="Path_54" data-name="Path 54" d="M671.454,341.919l2.391,19.469s-21.86,16.4-18.445,75.145L587.087,721.4s12.98,17.078,47.136,15.712,100.42-273.253,100.42-273.253-18.445,266.422,4.1,273.253,54.651,3.416,54.651,3.416l21.177-356.6s-21.177-35.523-33.473-42.354-17.079-23.91-17.079-23.91Z" transform="translate(-84.243 -73.411)" fill="#0e3554"/>
    <path id="Path_55" data-name="Path 55" d="M589.441,746.68l-3.416,25.276s-31.424,67.63-2.733,65.581,29.375-43.721,29.375-43.721l5.465-35.523Z" transform="translate(-83.181 -102.107)" fill="#001c33"/>
    <path id="Path_56" data-name="Path 56" d="M780.5,746.68l3.416,25.276s31.424,67.63,2.733,65.581-29.375-43.72-29.375-43.72l-5.465-35.524Z" transform="translate(-95.261 -102.107)" fill="#001c33"/>
    <path id="Path_57" data-name="Path 57" d="M711.365,30.8,676.7,12.641l-47.867,7.428-9.9,43.741,24.653-.948,6.887-16.07V62.6l11.376-.438,6.6-25.585,4.126,27.236,40.44-.826Z" transform="translate(-41.4 -0.846)" fill="#001c33"/>
    <path id="Path_58" data-name="Path 58" d="M964.618,437.4c-20.31.436-36.466,15.154-36.466,15.154s16.773,14.012,37.083,13.576,36.466-15.154,36.466-15.154S984.928,436.968,964.618,437.4Z" transform="translate(-107.056 -81.419)" fill="#3796d6"/>
    <path id="Path_59" data-name="Path 59" d="M1073.836,360.9c-18.349,8.717-39.39,2.806-39.39,2.806s8.709-20.045,27.058-28.762,39.39-2.806,39.39-2.806S1092.181,352.187,1073.836,360.9Z" transform="translate(-114.166 -74.248)" fill="#3796d6"/>
    <path id="Path_60" data-name="Path 60" d="M1071.941,353.809C1051.71,351.96,1034,364.77,1034,364.77s15.092,15.807,35.323,17.656,37.938-10.961,37.938-10.961S1092.17,355.658,1071.941,353.809Z" transform="translate(-114.136 -75.816)" fill="#9cc1da"/>
    <path id="Path_61" data-name="Path 61" d="M993.121,355.05c1.939,20.222-10.792,37.986-10.792,37.986s-15.875-15.022-17.814-35.243,10.792-37.986,10.792-37.986S991.182,334.828,993.121,355.05Z" transform="translate(-109.475 -73.554)" fill="#9cc1da"/>
    <path id="Path_62" data-name="Path 62" d="M890.783,488.776c10.611,17.323,6.96,38.871,6.96,38.871s-20.854-6.538-31.465-23.861-6.96-38.871-6.96-38.871S880.173,471.452,890.783,488.776Z" transform="translate(-102.411 -83.26)" fill="#9cc1da"/>
    <path id="Path_63" data-name="Path 63" d="M924.2,670.448l-1.547-1.045a48.445,48.445,0,0,0,8.55-26.867c-.043-14.05-6.945-27.046-13.619-39.614-1.239-2.333-2.474-4.658-3.661-6.982a152.411,152.411,0,0,1-11.854-29.759c-10.353-38.472-.16-83.862,27.265-121.418,21.756-29.793,54.188-55.845,99.147-79.646l.873,1.649c-44.7,23.665-76.927,49.538-98.512,79.1-27.095,37.1-37.177,81.9-26.969,119.833a150.587,150.587,0,0,0,11.713,29.394c1.184,2.315,2.414,4.631,3.649,6.956,6.781,12.768,13.792,25.971,13.837,40.484a50.331,50.331,0,0,1-8.87,27.917Z" transform="translate(-105.046 -76.585)" fill="#9cc1da"/>
    <circle id="Ellipse_29" data-name="Ellipse 29" cx="17.729" cy="17.729" r="17.729" transform="translate(994.333 255.525)" fill="#9cc1da"/>
  </g>
</svg>
