<?xml version="1.0" encoding="iso-8859-1"?>
<!-- Generator: Adobe Illustrator 19.0.0, SVG Export Plug-In . SVG Version: 6.00 Build 0)  -->
<svg version="1.1" id="Capa_1" xmlns="http://www.w3.org/2000/svg" xmlns:xlink="http://www.w3.org/1999/xlink" x="0px" y="0px"
	 viewBox="0 0 512 512" style="enable-background:new 0 0 512 512;" xml:space="preserve">
<path style="fill:#CCCCCC;" d="M119.172,0H384c14.627,0,26.483,11.855,26.483,26.483v459.034C410.483,500.145,398.627,512,384,512
	H119.172c-14.627,0-26.483-11.855-26.483-26.483V26.483C92.69,11.855,104.545,0,119.172,0z"/>
<path style="fill:#29ABE2;" d="M92.69,70.621h317.793v370.759H92.69V70.621z"/>
<g>
	<path style="fill:#0071BC;" d="M507.586,264.828h-70.621l-26.483,26.483L384,264.828h-97.103V123.586h220.69V264.828z"/>
	<path style="fill:#0071BC;" d="M225.103,361.931h-52.966l-26.483,26.483l-26.483-26.483H4.414V220.69h220.69V361.931z"/>
</g>
<g>
	<path style="fill:#808080;" d="M225.103,26.483h17.655v17.655h-17.655V26.483z"/>
	<path style="fill:#808080;" d="M260.414,26.483h17.655v17.655h-17.655V26.483z"/>
	<path style="fill:#808080;" d="M242.759,467.862h17.655v17.655h-17.655V467.862z"/>
</g>
<g>
	<path style="fill:#FBB03B;" d="M48.552,247.172h17.655v17.655H48.552V247.172z"/>
	<path style="fill:#FBB03B;" d="M331.034,150.069h17.655v17.655h-17.655V150.069z"/>
	<path style="fill:#FBB03B;" d="M322.207,185.379h150.069v17.655H322.207V185.379z"/>
	<path style="fill:#FBB03B;" d="M322.207,220.69h132.414v17.655H322.207V220.69z"/>
	<path style="fill:#FBB03B;" d="M375.172,150.069h97.103v17.655h-97.103V150.069z"/>
	<path style="fill:#FBB03B;" d="M39.724,282.483h150.069v17.655H39.724V282.483z"/>
	<path style="fill:#FBB03B;" d="M39.724,317.793h132.414v17.655H39.724V317.793z"/>
	<path style="fill:#FBB03B;" d="M83.862,247.172h105.931v17.655H83.862V247.172z"/>
</g>
<g>
</g>
<g>
</g>
<g>
</g>
<g>
</g>
<g>
</g>
<g>
</g>
<g>
</g>
<g>
</g>
<g>
</g>
<g>
</g>
<g>
</g>
<g>
</g>
<g>
</g>
<g>
</g>
<g>
</g>
</svg>
