<svg xmlns="http://www.w3.org/2000/svg" width="45" height="50.136" viewBox="0 0 45 50.136">
  <g id="mobile-phone" transform="translate(-21.856)">
    <path id="Path_362" data-name="Path 362" d="M24.333,0H50.757a2.477,2.477,0,0,1,2.477,2.477V47.658a2.477,2.477,0,0,1-2.477,2.477H24.333a2.477,2.477,0,0,1-2.477-2.477V2.477A2.477,2.477,0,0,1,24.333,0Z" fill="#004371"/>
    <path id="Path_363" data-name="Path 363" d="M37.919,37.149h27.6V75.724h-27.6Z" transform="translate(-14.176 -32.784)" fill="#69b0ee"/>
    <circle id="Ellipse_54" data-name="Ellipse 54" cx="1.749" cy="1.749" r="1.749" transform="translate(35.796 44.694)" fill="#828a9e"/>
    <path id="Path_364" data-name="Path 364" d="M136.894,14.758h-4.428a.543.543,0,0,0,0,1.086h4.428a.543.543,0,0,0,0-1.086Z" transform="translate(-97.134 -13.024)" fill="#828a9e"/>
    <path id="Path_365" data-name="Path 365" d="M186,138.571v16.21a.779.779,0,0,1-.244.564.384.384,0,0,1-.061.05.755.755,0,0,1-.463.158h-27.6a.755.755,0,0,1-.463-.158.378.378,0,0,1-.061-.05.779.779,0,0,1-.245-.564v-16.21a.79.79,0,0,1,.135-.44,1.008,1.008,0,0,1,.085-.1.757.757,0,0,1,.55-.235h27.595a.758.758,0,0,1,.55.235,1,1,0,0,1,.085.1A.79.79,0,0,1,186,138.571Z" transform="translate(-119.14 -121.608)" fill="#f6b863"/>
    <g id="Group_35" data-name="Group 35" transform="translate(37.851 16.426)">
      <path id="Path_366" data-name="Path 366" d="M186.86,139.9c-.911.872-1.834,1.733-2.748,2.605q-1.881,1.754-3.774,3.485-1.23,1.123-2.463,2.234c-.2.183-.4.363-.606.544q-2.275,2.05-4.573,4.071l-.27.239-.27-.239c-1.524-1.351-3.053-2.705-4.57-4.071-.2-.177-.409-.363-.611-.544q-1.239-1.112-2.462-2.235-1.9-1.731-3.774-3.485c-.911-.872-1.834-1.733-2.748-2.605a1,1,0,0,1,.085-.1c.978.787,1.949,1.594,2.926,2.384q1.974,1.639,3.929,3.3c2.52,2.13,5.009,4.3,7.495,6.472,2.485-2.177,4.975-4.341,7.495-6.472q1.951-1.661,3.929-3.3c.978-.791,1.945-1.6,2.926-2.384a1.037,1.037,0,0,1,.086.1Z" transform="translate(-157.991 -139.802)" fill="#eaa14e"/>
      <path id="Path_367" data-name="Path 367" d="M168.69,209.5l-.251.224-9.421,8.394a.378.378,0,0,1-.061-.05l8.872-8.888.306-.306Z" transform="translate(-158.843 -200.761)" fill="#eaa14e"/>
      <path id="Path_368" data-name="Path 368" d="M329.639,218.074a.384.384,0,0,1-.061.05l-9.42-8.394-.255-.224.556-.625.306.306Z" transform="translate(-300.879 -200.764)" fill="#eaa14e"/>
    </g>
  </g>
</svg>
