<svg xmlns="http://www.w3.org/2000/svg" width="361.922" height="317.388" viewBox="0 0 361.922 317.388">
  <g id="purse2" transform="translate(0 -31.5)">
    <path id="Path_20" data-name="Path 20" d="M307.143,65.481h-.028l-278.837,0c-.113,0-.219.009-.329.014A28.271,28.271,0,0,0,0,93.768v5.213c0-.9.048,1.749.119.869a28.274,28.274,0,0,0,28.156,25.728l278.837-3.539c.009,0,.018,3.534.028,3.534,18.514,0,33.577,11.528,33.577,30.043V99.06A33.616,33.616,0,0,0,307.143,65.481Z" transform="translate(-0.001 -9.96)" fill="#0e3554"/>
    <path id="Path_21" data-name="Path 21" d="M307.142,134.822h-.028l-278.837,0A28.274,28.274,0,0,1,.122,109.1c-.074.908-.122,1.823-.122,2.749,0,.009,0,.018,0,.027V338.055c0,.01,0,.018,0,.027a33.615,33.615,0,0,0,33.576,33.551H307.142a33.615,33.615,0,0,0,33.577-33.572V168.4A33.615,33.615,0,0,0,307.142,134.822Z" transform="translate(0 -22.746)" fill="#2d4d67"/>
    <path id="Path_22" data-name="Path 22" d="M425.709,145.488H404.57a33.614,33.614,0,0,1,33.507,33.576V348.728A33.615,33.615,0,0,1,404.5,382.3h21.209a33.615,33.615,0,0,0,33.577-33.573V179.065A33.615,33.615,0,0,0,425.709,145.488Z" transform="translate(-118.567 -33.412)" fill="#0e3554"/>
    <path id="Path_23" data-name="Path 23" d="M425.738,65.481H404.6a33.614,33.614,0,0,1,33.507,33.575v25.349a33.624,33.624,0,0,1,21.208,31.207V99.058A33.614,33.614,0,0,0,425.738,65.481Z" transform="translate(-118.597 -9.96)" fill="#001c33"/>
    <path id="Path_24" data-name="Path 24" d="M450.1,241.119H370.56c-.153,0-.3.009-.456.023a5.116,5.116,0,0,0-.513.071l-.062.01c-.14.028-.277.064-.412.1-.028.008-.057.013-.086.022-.121.037-.238.081-.356.126-.044.017-.088.031-.132.048-.1.041-.192.088-.286.134-.061.03-.125.057-.186.09s-.142.083-.212.126-.16.092-.236.143c-.05.034-.1.072-.146.107-.091.066-.183.13-.271.2-.036.03-.069.063-.1.093-.094.082-.189.163-.278.252-.045.045-.086.095-.13.141-.077.083-.155.165-.228.253-.107.131-.208.267-.3.408l-.005.008-28.274,42.413a5.215,5.215,0,0,0-.5.935c-.05.122-.091.245-.131.369-.012.038-.028.074-.039.111-.04.131-.07.263-.1.395-.008.035-.018.069-.025.1-.023.119-.039.238-.054.358-.006.051-.016.1-.021.153-.01.1-.012.2-.016.294,0,.075-.01.15-.01.226s.006.146.009.218c0,.1.006.2.016.3.005.049.014.1.021.147.016.122.031.243.055.364.007.033.016.066.024.1.029.134.06.266.1.4.011.037.027.074.039.112.04.123.081.247.131.368a5.257,5.257,0,0,0,.5.935l28.273,42.407,0,.006a5.518,5.518,0,0,0,.37.485c.043.051.088.1.133.147.091.1.183.193.281.284.057.054.114.106.172.156.1.089.21.171.319.252.05.036.1.076.147.11a5.286,5.286,0,0,0,.494.3c.043.023.088.042.131.063.136.068.274.131.416.187.055.022.11.042.166.061q.2.072.412.128c.057.016.114.031.172.045.144.033.289.059.437.08.054.008.107.018.16.025a5.31,5.31,0,0,0,.556.033c.015,0,.03,0,.045,0H444.8a15.92,15.92,0,0,0,15.9-15.9V230.57A10.6,10.6,0,0,1,450.1,241.119Z" transform="translate(-98.78 -58.352)" fill="#416d91"/>
    <path id="Path_25" data-name="Path 25" d="M486.007,241.119H475.4v79.524a15.92,15.92,0,0,1-15.9,15.9h21.208a15.92,15.92,0,0,0,15.9-15.9V230.57A10.6,10.6,0,0,1,486.007,241.119Z" transform="translate(-134.688 -58.352)" fill="#2d4d67"/>
    <g id="Group_23" data-name="Group 23" transform="translate(28.277 83.807)">
      <path id="Path_26" data-name="Path 26" d="M492.6,215.493H482v10.549c0,.018,0,.036,0,.054s0,.036,0,.054V236.7h10.6a10.6,10.6,0,1,0,0-21.206Z" transform="translate(-169.562 -137.739)" fill="#001c33"/>
      <path id="Path_27" data-name="Path 27" d="M311.793,116.1H45.3a5.3,5.3,0,1,1,0-10.6H311.793a5.3,5.3,0,1,1,0,10.6Z" transform="translate(-40.003 -105.497)" fill="#001c33"/>
    </g>
    <path id="Path_28" data-name="Path 28" d="M407.169,323.339a17.672,17.672,0,1,1,17.672-17.672A17.692,17.692,0,0,1,407.169,323.339Z" transform="translate(-114.17 -75.184)" fill="#e4daa0"/>
    <path id="Path_29" data-name="Path 29" d="M278.588,88.048,81.378,31.7c-.028-.008-.057-.012-.086-.02s-.057-.019-.086-.026c-.059-.015-.117-.022-.176-.035-.092-.02-.184-.04-.275-.054s-.163-.022-.245-.031-.192-.021-.288-.027c-.078,0-.155,0-.232-.006-.1,0-.2,0-.3,0-.074,0-.147.01-.22.016-.1.008-.2.018-.3.032-.07.01-.139.023-.209.036-.1.018-.2.037-.3.061-.066.016-.131.035-.2.054-.1.028-.2.057-.3.092-.061.022-.122.046-.182.069-.1.039-.2.078-.292.122-.057.027-.114.056-.17.084-.095.048-.189.1-.281.151-.054.032-.106.066-.16.1-.09.057-.18.115-.267.177-.052.037-.1.076-.152.115-.083.064-.165.13-.245.2-.05.044-.1.09-.146.135-.074.071-.148.142-.219.217-.048.051-.094.1-.141.158-.065.075-.129.15-.19.229-.047.061-.09.123-.135.185s-.108.154-.159.234-.086.143-.127.216-.088.156-.128.235-.076.162-.112.244-.069.159-.1.241-.062.175-.09.263c-.018.057-.041.111-.057.169-.008.028-.012.057-.02.086s-.019.057-.026.086L61.646,88.044H278.588v0Z" transform="translate(-18.07 0)" fill="#9cc1da"/>
  </g>
</svg>
