<svg id="question" xmlns="http://www.w3.org/2000/svg" width="45" height="45" viewBox="0 0 45 45">
  <circle id="Ellipse_55" data-name="Ellipse 55" cx="22.5" cy="22.5" r="22.5" transform="translate(0 0)" fill="#0e3554"/>
  <path id="Path_373" data-name="Path 373" d="M12.015.1A12.284,12.284,0,0,0,2.986,20.411,3.716,3.716,0,0,1,3.66,24.09l-.808,2.263a.789.789,0,0,0,1.215.9l2.866-2.143a3.757,3.757,0,0,1,2.981-.669A12.284,12.284,0,1,0,12.015.1Z" transform="translate(0 -0.091)" fill="#ff525d"/>
  <path id="Path_374" data-name="Path 374" d="M208.743,132.161a4.6,4.6,0,0,0-.822,4.484l.388,1.088q-.736.853-1.554,1.629l-2.413-1.8a4.553,4.553,0,0,0-3.555-.828,14.321,14.321,0,0,1-2.362.284,13.393,13.393,0,1,1,10.318-4.854Z" transform="translate(-168.768 -100.54)" fill="#f6c863"/>
  <g id="Group_36" data-name="Group 36" transform="translate(7.637 3.925)">
    <path id="Path_375" data-name="Path 375" d="M319.685,177.612a1.932,1.932,0,0,1-1.879,1.9,1.9,1.9,0,1,1,1.879-1.9Zm-.47-4.7c0,.766-.84,1.088-1.434,1.088-.791,0-1.458-.321-1.458-1.088,0-2.941-.346-7.168-.346-10.11,0-.964.791-1.508,1.8-1.508a1.588,1.588,0,0,1,1.78,1.508C319.561,165.747,319.215,169.974,319.215,172.915Z" transform="translate(-295.775 -151.046)" fill="#f9eed7"/>
    <path id="Path_376" data-name="Path 376" d="M93.643,52.544a2.847,2.847,0,0,0-1.27,2.834c0,.431-.227.929-1.338.929-.929,0-1.247-.34-1.247-1.519a4.15,4.15,0,0,1,1.519-3.446c.748-.635,2.018-1.338,2.018-2.562,0-1.043-.907-1.542-2.04-1.542-2.312,0-1.814,1.746-3.038,1.746a1.3,1.3,0,0,1-1.36-1.292c0-1.224,1.406-3.038,4.466-3.038,2.9,0,4.829,1.61,4.829,3.74S94.255,52.068,93.643,52.544ZM92.8,59.617a1.761,1.761,0,0,1-1.746,1.746,1.746,1.746,0,0,1,0-3.491A1.761,1.761,0,0,1,92.8,59.617Z" transform="translate(-86.887 -44.655)" fill="#f9eed7"/>
  </g>
</svg>
