<svg id="svg" version="1.1" xmlns="http://www.w3.org/2000/svg" xmlns:xlink="http://www.w3.org/1999/xlink" width="400" height="129.50474183350894" viewBox="0, 0, 400,129.50474183350894"><g id="svgg"><path id="path0" d="M2.612 3.792 C 2.523 3.939,2.000 5.966,2.000 6.161 C 2.000 6.235,2.206 6.333,2.458 6.380 C 3.139 6.505,6.964 7.533,7.833 7.823 C 8.063 7.900,8.925 8.170,9.750 8.424 C 10.575 8.678,11.400 8.941,11.583 9.009 C 11.767 9.078,12.517 9.335,13.250 9.581 C 15.134 10.214,17.310 11.031,19.250 11.832 C 20.167 12.211,21.067 12.563,21.250 12.613 C 21.433 12.664,22.183 12.989,22.917 13.336 C 23.650 13.683,24.531 14.065,24.875 14.184 C 25.219 14.303,25.500 14.460,25.500 14.533 C 25.500 14.607,25.594 14.667,25.708 14.668 C 25.823 14.668,26.517 14.968,27.250 15.333 C 27.983 15.699,28.671 15.998,28.778 15.999 C 28.885 16.000,28.997 16.056,29.028 16.125 C 29.058 16.194,29.533 16.472,30.083 16.744 C 30.633 17.015,31.271 17.361,31.500 17.513 C 31.729 17.665,32.104 17.846,32.333 17.915 C 32.563 17.983,32.869 18.144,33.015 18.271 C 33.265 18.490,33.594 18.676,35.971 19.938 C 37.301 20.644,40.749 22.812,42.583 24.096 C 43.408 24.673,44.446 25.394,44.890 25.698 C 45.333 26.001,45.783 26.329,45.890 26.425 C 45.996 26.521,46.533 26.929,47.083 27.331 C 47.976 27.983,49.613 29.276,49.833 29.502 C 49.879 29.549,50.327 29.924,50.829 30.336 C 51.330 30.747,51.861 31.196,52.009 31.333 C 52.156 31.471,52.646 31.896,53.097 32.278 C 55.845 34.607,60.770 39.604,63.114 42.441 C 64.401 44.000,64.755 44.422,64.840 44.500 C 64.889 44.546,65.294 45.071,65.738 45.667 C 66.183 46.262,66.651 46.862,66.778 47.000 C 68.592 48.962,73.699 57.264,76.159 62.250 C 76.747 63.442,77.271 64.454,77.322 64.500 C 77.374 64.546,77.431 64.658,77.449 64.750 C 77.563 65.335,78.979 68.486,79.046 68.305 C 79.092 68.183,79.127 68.331,79.123 68.633 C 79.119 68.935,79.202 69.269,79.308 69.374 C 79.552 69.619,79.555 69.357,79.319 68.333 C 79.223 67.921,79.032 66.983,78.893 66.250 C 78.755 65.517,78.566 64.542,78.474 64.083 C 78.382 63.625,78.206 62.688,78.083 62.000 C 77.959 61.313,77.777 60.413,77.676 60.000 C 77.575 59.587,77.420 58.800,77.332 58.250 C 77.243 57.700,77.055 56.725,76.915 56.083 C 76.775 55.442,76.590 54.504,76.504 54.000 C 76.418 53.496,76.195 52.371,76.009 51.500 C 75.823 50.629,75.670 49.715,75.669 49.468 C 75.668 49.221,75.602 48.979,75.522 48.930 C 75.443 48.881,75.334 48.521,75.281 48.129 C 75.172 47.315,74.731 44.944,74.483 43.833 C 74.391 43.421,74.219 42.483,74.100 41.750 C 73.982 41.017,73.766 39.929,73.621 39.333 C 73.475 38.737,73.234 37.575,73.085 36.750 C 72.560 33.843,72.476 33.410,72.302 32.750 C 72.206 32.383,72.070 31.708,71.999 31.250 C 71.837 30.190,70.936 25.570,70.488 23.500 C 70.300 22.629,70.082 21.579,70.004 21.167 C 69.925 20.754,69.697 19.592,69.496 18.583 C 69.295 17.575,69.066 16.300,68.987 15.750 C 68.726 13.945,67.843 11.321,67.027 9.928 C 66.206 8.524,64.938 7.111,64.009 6.562 C 63.729 6.397,63.500 6.203,63.500 6.131 C 63.500 6.059,63.387 6.000,63.250 6.000 C 63.112 6.000,63.000 5.931,63.000 5.847 C 63.000 5.762,62.756 5.640,62.458 5.576 C 62.160 5.511,61.879 5.406,61.833 5.343 C 61.702 5.160,60.361 4.667,59.997 4.667 C 59.815 4.667,59.667 4.601,59.667 4.522 C 59.667 4.442,59.348 4.334,58.958 4.281 C 58.569 4.228,57.500 4.071,56.583 3.931 C 54.778 3.656,2.773 3.522,2.612 3.792 " stroke="none" fill="#faa406" fill-rule="evenodd"></path><path id="path1" d="M256.419 1.636 C 256.383 1.673,255.580 1.731,254.635 1.767 C 253.690 1.802,252.729 1.875,252.500 1.928 C 252.271 1.981,251.696 2.048,251.223 2.077 C 250.749 2.106,250.286 2.177,250.192 2.234 C 250.099 2.292,249.643 2.347,249.178 2.358 C 248.713 2.368,248.333 2.426,248.333 2.486 C 248.333 2.546,248.202 2.600,248.042 2.605 C 247.179 2.634,245.589 2.898,244.767 3.148 C 244.082 3.357,242.987 3.564,242.629 3.553 C 242.470 3.548,242.388 3.621,242.446 3.715 C 242.515 3.825,242.364 3.848,242.018 3.779 C 241.684 3.712,241.521 3.733,241.585 3.836 C 241.641 3.926,241.532 4.000,241.343 4.000 C 240.858 4.000,240.783 4.015,240.484 4.175 C 240.338 4.253,240.038 4.353,239.817 4.396 C 239.597 4.439,238.404 4.825,237.167 5.254 C 235.929 5.683,234.842 6.053,234.750 6.075 C 234.658 6.097,234.208 6.291,233.750 6.507 C 233.292 6.722,232.842 6.903,232.750 6.908 C 232.658 6.913,232.546 6.960,232.500 7.014 C 232.383 7.150,230.485 8.032,230.228 8.069 C 230.111 8.087,229.855 8.247,229.657 8.425 C 229.460 8.604,229.268 8.730,229.231 8.706 C 229.153 8.655,227.455 9.496,227.333 9.647 C 227.287 9.704,226.912 9.932,226.500 10.153 C 226.088 10.375,225.328 10.841,224.812 11.188 C 224.296 11.534,223.827 11.772,223.770 11.715 C 223.713 11.658,223.667 11.719,223.667 11.851 C 223.667 11.982,223.329 12.275,222.917 12.500 C 222.504 12.725,222.167 13.005,222.167 13.122 C 222.167 13.238,222.086 13.333,221.986 13.333 C 221.799 13.333,220.292 14.490,220.194 14.708 C 220.164 14.777,220.083 14.833,220.015 14.833 C 219.879 14.833,217.086 17.532,217.081 17.667 C 217.075 17.867,216.253 18.667,216.053 18.667 C 215.932 18.667,215.833 18.771,215.833 18.899 C 215.833 19.027,215.647 19.308,215.420 19.524 C 215.192 19.740,215.004 20.010,215.003 20.125 C 215.001 20.240,214.887 20.333,214.750 20.333 C 214.612 20.333,214.500 20.434,214.500 20.558 C 214.500 20.681,214.350 20.917,214.167 21.083 C 213.983 21.249,213.833 21.486,213.833 21.609 C 213.833 21.732,213.760 21.833,213.671 21.833 C 213.582 21.833,213.385 22.077,213.235 22.375 C 213.084 22.673,212.807 23.085,212.618 23.292 C 212.430 23.498,212.345 23.668,212.429 23.669 C 212.514 23.671,212.508 23.727,212.417 23.794 C 212.129 24.006,211.443 25.055,211.686 24.912 C 211.830 24.827,211.812 24.897,211.639 25.096 C 211.373 25.403,209.482 29.167,209.594 29.167 C 209.623 29.167,209.439 29.673,209.184 30.292 C 208.929 30.910,208.708 31.492,208.693 31.583 C 208.678 31.675,208.542 32.162,208.391 32.667 C 208.239 33.171,208.094 33.696,208.069 33.833 C 207.979 34.317,207.906 34.585,207.819 34.750 C 207.771 34.842,207.741 35.160,207.751 35.458 C 207.762 35.756,207.706 36.000,207.626 36.000 C 207.546 36.000,207.515 36.057,207.558 36.126 C 207.601 36.196,207.565 36.590,207.478 37.001 C 207.081 38.883,206.964 47.083,207.335 47.083 C 207.346 47.083,207.389 47.308,207.429 47.583 C 207.470 47.858,207.527 48.196,207.558 48.333 C 207.588 48.471,207.673 48.883,207.745 49.250 C 207.818 49.617,207.948 50.053,208.034 50.219 C 208.195 50.531,208.349 51.092,208.374 51.458 C 208.382 51.573,208.451 51.667,208.528 51.667 C 208.604 51.667,208.667 51.813,208.667 51.991 C 208.667 52.170,208.854 52.668,209.083 53.099 C 209.313 53.530,209.500 54.022,209.500 54.191 C 209.500 54.361,209.575 54.500,209.667 54.500 C 209.758 54.500,209.833 54.612,209.833 54.750 C 209.833 54.887,209.908 55.000,210.000 55.000 C 210.092 55.000,210.150 55.056,210.129 55.125 C 210.077 55.300,210.867 56.833,211.009 56.833 C 211.074 56.833,211.219 57.058,211.333 57.333 C 211.447 57.608,211.611 57.833,211.697 57.833 C 211.783 57.833,211.806 57.909,211.749 58.001 C 211.692 58.093,211.762 58.214,211.905 58.269 C 212.048 58.323,212.123 58.436,212.072 58.519 C 212.021 58.601,212.096 58.714,212.239 58.769 C 212.383 58.824,212.500 58.976,212.500 59.106 C 212.500 59.237,212.612 59.387,212.750 59.440 C 212.887 59.492,213.000 59.638,213.000 59.762 C 213.000 59.887,213.265 60.254,213.589 60.578 C 213.913 60.902,214.135 61.167,214.083 61.167 C 214.030 61.167,214.757 61.954,215.698 62.917 C 216.639 63.879,217.504 64.667,217.621 64.667 C 217.738 64.667,217.815 64.731,217.792 64.809 C 217.769 64.887,218.088 65.236,218.500 65.583 C 218.912 65.931,219.229 66.285,219.204 66.370 C 219.179 66.455,219.236 66.477,219.330 66.418 C 219.425 66.360,219.547 66.429,219.602 66.573 C 219.657 66.716,219.780 66.833,219.876 66.833 C 219.971 66.833,220.393 67.115,220.813 67.458 C 221.233 67.802,221.634 68.065,221.705 68.042 C 221.775 68.019,221.833 68.061,221.833 68.136 C 221.833 68.340,224.274 70.004,224.395 69.883 C 224.453 69.825,224.500 69.859,224.500 69.958 C 224.500 70.057,225.006 70.421,225.625 70.766 C 226.244 71.112,226.849 71.494,226.970 71.614 C 227.091 71.735,227.298 71.833,227.429 71.833 C 227.560 71.833,227.667 71.891,227.667 71.962 C 227.667 72.033,227.948 72.235,228.292 72.412 C 228.635 72.589,229.048 72.843,229.208 72.976 C 229.369 73.109,229.500 73.165,229.500 73.101 C 229.500 73.036,229.751 73.174,230.057 73.408 C 230.364 73.642,230.727 73.833,230.865 73.833 C 231.002 73.833,231.249 73.982,231.414 74.163 C 231.578 74.345,231.965 74.541,232.273 74.599 C 232.581 74.656,232.833 74.775,232.833 74.862 C 232.833 74.949,232.909 74.973,233.001 74.916 C 233.093 74.859,233.211 74.923,233.263 75.058 C 233.353 75.292,234.088 75.593,234.395 75.521 C 234.475 75.502,234.498 75.598,234.446 75.735 C 234.382 75.900,234.428 75.953,234.584 75.893 C 234.713 75.844,234.988 75.923,235.196 76.068 C 235.404 76.214,235.707 76.333,235.870 76.333 C 236.033 76.333,236.167 76.413,236.167 76.510 C 236.167 76.607,236.236 76.643,236.322 76.590 C 236.407 76.538,236.524 76.571,236.582 76.665 C 236.640 76.759,236.964 76.973,237.302 77.140 C 237.640 77.307,238.273 77.647,238.708 77.894 C 239.144 78.142,239.500 78.293,239.500 78.230 C 239.500 78.167,239.631 78.231,239.792 78.374 C 239.952 78.516,240.439 78.798,240.874 79.001 C 241.322 79.210,241.618 79.444,241.556 79.544 C 241.497 79.640,241.519 79.675,241.605 79.622 C 241.691 79.568,242.171 79.780,242.672 80.092 C 243.173 80.404,243.677 80.661,243.792 80.663 C 243.906 80.665,244.000 80.737,244.000 80.823 C 244.000 80.908,244.300 81.147,244.667 81.353 C 245.033 81.559,245.333 81.784,245.333 81.853 C 245.333 81.921,245.465 82.021,245.625 82.074 C 245.785 82.127,246.171 82.394,246.481 82.668 C 246.791 82.942,247.092 83.167,247.148 83.167 C 247.296 83.167,249.667 85.487,249.667 85.632 C 249.667 85.699,249.854 85.956,250.083 86.203 C 250.313 86.450,250.500 86.730,250.500 86.826 C 250.500 86.922,250.575 87.000,250.667 87.000 C 250.758 87.000,250.821 87.056,250.806 87.125 C 250.792 87.194,250.879 87.475,251.001 87.750 C 251.122 88.025,251.230 88.287,251.239 88.333 C 251.248 88.379,251.324 88.526,251.409 88.660 C 251.494 88.794,251.587 89.206,251.616 89.577 C 251.646 89.947,251.715 90.720,251.769 91.295 C 251.825 91.880,251.798 92.430,251.708 92.545 C 251.620 92.658,251.567 92.994,251.590 93.292 C 251.614 93.590,251.566 93.833,251.483 93.833 C 251.401 93.833,251.347 93.890,251.364 93.958 C 251.436 94.257,250.936 95.480,250.780 95.384 C 250.680 95.322,250.651 95.384,250.709 95.536 C 251.142 96.666,245.515 101.470,243.417 101.761 C 243.325 101.773,242.965 101.910,242.616 102.064 C 242.268 102.219,241.760 102.390,241.488 102.444 C 241.216 102.499,240.953 102.608,240.903 102.688 C 240.854 102.768,240.739 102.833,240.647 102.833 C 240.555 102.833,240.538 102.740,240.609 102.625 C 240.679 102.510,240.530 102.552,240.277 102.717 C 240.024 102.883,239.690 103.005,239.534 102.990 C 239.378 102.974,239.213 102.976,239.167 102.994 C 239.002 103.057,238.404 103.158,237.667 103.249 C 237.254 103.300,236.804 103.375,236.667 103.417 C 235.602 103.742,226.665 103.741,225.000 103.416 C 224.771 103.371,224.058 103.296,223.417 103.250 C 222.775 103.203,222.063 103.123,221.833 103.072 C 221.604 103.021,221.117 102.947,220.750 102.908 C 220.383 102.869,219.896 102.791,219.667 102.735 C 219.438 102.680,218.950 102.601,218.583 102.560 C 218.217 102.519,217.674 102.409,217.377 102.314 C 217.080 102.219,216.560 102.108,216.221 102.066 C 215.882 102.023,215.518 101.917,215.412 101.829 C 215.306 101.741,215.172 101.717,215.114 101.775 C 215.056 101.833,214.912 101.808,214.796 101.720 C 214.679 101.631,214.433 101.550,214.250 101.539 C 214.067 101.528,213.242 101.287,212.417 101.002 C 211.592 100.718,210.804 100.458,210.667 100.425 C 210.035 100.270,208.730 99.780,208.542 99.628 C 208.427 99.535,208.333 99.503,208.333 99.557 C 208.333 99.611,207.996 99.510,207.583 99.333 C 207.171 99.157,206.832 99.065,206.831 99.131 C 206.829 99.196,206.773 99.169,206.706 99.070 C 206.638 98.971,205.871 98.609,205.000 98.266 C 204.129 97.922,202.854 97.375,202.167 97.049 C 199.537 95.804,199.081 95.581,199.000 95.500 C 198.787 95.287,198.071 95.403,198.057 95.652 C 198.024 96.255,197.796 97.925,197.732 98.029 C 197.694 98.091,197.621 98.501,197.569 98.940 C 197.517 99.379,197.450 99.779,197.420 99.828 C 197.390 99.877,197.315 100.322,197.252 100.817 C 197.189 101.312,197.101 101.875,197.056 102.067 C 196.946 102.539,196.829 103.318,196.786 103.875 C 196.766 104.127,196.713 104.333,196.667 104.333 C 196.621 104.333,196.592 104.577,196.604 104.875 C 196.615 105.173,196.552 105.507,196.464 105.618 C 196.376 105.728,196.343 105.881,196.390 105.957 C 196.437 106.033,196.336 106.805,196.165 107.673 C 195.861 109.219,195.640 110.629,195.610 111.208 C 195.602 111.369,195.547 111.500,195.488 111.500 C 195.429 111.500,195.381 111.706,195.382 111.958 C 195.382 112.540,195.180 114.177,195.089 114.324 C 195.051 114.386,194.979 114.769,194.928 115.176 C 194.878 115.583,194.792 116.104,194.739 116.333 C 194.685 116.563,194.612 116.975,194.577 117.250 C 194.541 117.525,194.460 118.162,194.395 118.667 C 194.263 119.696,194.233 119.881,194.181 120.000 C 194.160 120.046,194.111 120.290,194.072 120.542 C 194.032 120.794,193.968 121.206,193.928 121.458 C 193.889 121.710,193.841 121.917,193.823 121.917 C 193.805 121.917,193.778 122.123,193.762 122.375 C 193.745 122.654,193.819 122.833,193.951 122.833 C 194.069 122.833,194.167 122.900,194.167 122.982 C 194.167 123.064,194.373 123.189,194.625 123.260 C 195.243 123.435,195.152 123.400,196.055 123.805 C 196.499 124.004,196.887 124.167,196.920 124.167 C 196.952 124.167,197.189 124.253,197.447 124.359 C 198.002 124.586,198.259 124.662,198.875 124.782 C 199.127 124.831,199.333 124.921,199.333 124.983 C 199.333 125.044,199.532 125.110,199.775 125.131 C 200.018 125.151,200.318 125.251,200.441 125.354 C 200.565 125.457,200.667 125.492,200.667 125.433 C 200.667 125.373,200.873 125.429,201.125 125.556 C 201.564 125.778,202.755 126.024,203.379 126.021 C 203.541 126.021,203.640 126.075,203.599 126.141 C 203.558 126.208,203.650 126.278,203.804 126.297 C 203.958 126.316,204.275 126.356,204.508 126.386 C 204.742 126.415,205.005 126.483,205.092 126.537 C 205.179 126.590,205.625 126.689,206.083 126.755 C 206.542 126.821,206.988 126.918,207.076 126.969 C 207.221 127.054,207.943 127.180,208.458 127.210 C 208.573 127.217,208.667 127.288,208.667 127.368 C 208.667 127.449,208.760 127.496,208.875 127.474 C 208.990 127.452,209.383 127.498,209.750 127.577 C 210.117 127.657,210.642 127.737,210.917 127.755 C 211.192 127.774,211.604 127.832,211.833 127.884 C 212.348 128.001,213.114 128.112,214.417 128.258 C 214.967 128.320,215.549 128.441,215.712 128.526 C 215.874 128.612,216.073 128.641,216.154 128.591 C 216.236 128.541,216.853 128.603,217.526 128.729 C 218.199 128.855,219.270 128.943,219.906 128.924 C 220.565 128.905,220.923 128.945,220.739 129.016 C 220.518 129.103,220.626 129.136,221.083 129.121 C 221.450 129.109,222.500 129.162,223.417 129.239 C 225.555 129.419,233.560 129.465,235.083 129.307 C 236.515 129.158,238.256 129.009,239.583 128.921 C 240.133 128.884,240.846 128.811,241.167 128.759 C 241.487 128.706,242.068 128.631,242.457 128.592 C 242.846 128.553,243.237 128.476,243.326 128.421 C 243.415 128.366,243.828 128.315,244.244 128.306 C 244.660 128.298,245.000 128.238,245.000 128.173 C 245.000 128.109,245.094 128.049,245.208 128.040 C 245.323 128.031,245.698 128.007,246.042 127.985 C 246.385 127.964,246.667 127.890,246.667 127.821 C 246.667 127.752,246.873 127.719,247.125 127.747 C 247.377 127.776,247.658 127.752,247.750 127.696 C 247.927 127.587,248.280 127.492,248.625 127.462 C 248.740 127.453,248.833 127.398,248.833 127.342 C 248.833 127.253,249.266 127.169,249.951 127.124 C 250.062 127.117,250.111 127.045,250.061 126.965 C 250.012 126.884,250.271 126.836,250.638 126.858 C 251.006 126.879,251.409 126.811,251.535 126.707 C 251.661 126.603,252.017 126.472,252.326 126.418 C 252.635 126.363,252.951 126.280,253.027 126.233 C 253.183 126.137,253.808 125.981,254.125 125.959 C 254.240 125.951,254.333 125.869,254.333 125.778 C 254.333 125.686,254.384 125.661,254.445 125.723 C 254.506 125.784,254.738 125.716,254.958 125.571 C 255.179 125.426,255.467 125.349,255.597 125.399 C 255.727 125.449,255.833 125.429,255.833 125.356 C 255.833 125.282,255.927 125.217,256.042 125.210 C 256.156 125.203,256.662 125.034,257.167 124.836 C 257.671 124.637,258.402 124.361,258.792 124.222 C 259.181 124.083,259.500 123.901,259.500 123.818 C 259.500 123.735,259.675 123.667,259.889 123.667 C 260.103 123.667,260.334 123.610,260.403 123.542 C 260.472 123.473,260.578 123.410,260.639 123.402 C 260.891 123.368,261.570 123.020,261.417 123.003 C 261.325 122.992,261.563 122.874,261.947 122.740 C 262.330 122.605,263.278 122.121,264.055 121.664 C 264.832 121.207,265.509 120.833,265.559 120.833 C 265.644 120.833,266.679 120.185,267.085 119.877 C 267.178 119.807,267.646 119.487,268.126 119.167 C 268.607 118.846,269.000 118.527,269.000 118.458 C 269.000 118.390,269.108 118.333,269.241 118.333 C 269.373 118.333,269.579 118.202,269.699 118.042 C 269.819 117.881,270.367 117.419,270.917 117.015 C 271.467 116.611,272.104 116.102,272.333 115.885 C 272.563 115.667,273.132 115.135,273.599 114.703 C 274.776 113.613,276.536 111.633,277.417 110.408 C 277.600 110.154,277.844 109.850,277.958 109.734 C 278.073 109.619,278.167 109.478,278.167 109.421 C 278.167 109.365,278.357 109.116,278.589 108.868 C 278.821 108.620,279.054 108.248,279.107 108.042 C 279.160 107.835,279.270 107.667,279.351 107.667 C 279.433 107.667,279.500 107.560,279.500 107.431 C 279.500 107.301,279.559 107.169,279.632 107.139 C 279.826 107.057,280.858 105.167,280.710 105.164 C 280.640 105.163,280.667 105.106,280.770 105.039 C 280.990 104.894,281.694 103.531,282.185 102.295 C 282.377 101.812,282.613 101.229,282.711 101.000 C 282.808 100.771,282.875 100.527,282.860 100.458 C 282.845 100.390,282.902 100.333,282.985 100.333 C 283.069 100.333,283.116 100.202,283.091 100.042 C 283.065 99.881,283.153 99.535,283.287 99.272 C 283.420 99.008,283.565 98.598,283.608 98.360 C 283.651 98.122,283.743 97.850,283.811 97.755 C 283.880 97.661,283.921 97.396,283.903 97.167 C 283.885 96.938,283.942 96.661,284.029 96.553 C 284.117 96.445,284.195 96.126,284.203 95.845 C 284.211 95.564,284.274 95.333,284.344 95.333 C 284.414 95.333,284.450 95.202,284.425 95.042 C 284.400 94.881,284.453 94.563,284.543 94.333 C 284.632 94.104,284.731 93.692,284.762 93.417 C 284.793 93.142,284.864 92.579,284.921 92.167 C 285.306 89.365,285.266 84.165,284.843 82.015 C 284.745 81.519,284.697 81.081,284.736 81.041 C 284.776 81.002,284.695 80.658,284.557 80.277 C 284.420 79.895,284.268 79.396,284.221 79.167 C 284.118 78.668,284.109 78.632,283.839 77.625 C 283.723 77.190,283.577 76.833,283.516 76.833 C 283.454 76.833,283.394 76.690,283.380 76.516 C 283.367 76.341,283.201 75.877,283.012 75.485 C 282.822 75.092,282.667 74.670,282.667 74.547 C 282.667 74.424,282.554 74.280,282.417 74.227 C 282.279 74.174,282.167 73.985,282.167 73.807 C 282.167 73.628,281.979 73.206,281.750 72.869 C 281.521 72.532,281.333 72.197,281.333 72.125 C 281.333 71.905,280.129 70.167,279.976 70.167 C 279.898 70.167,279.833 70.071,279.833 69.954 C 279.833 69.759,279.188 68.909,278.458 68.140 C 278.298 67.971,278.167 67.781,278.167 67.716 C 278.167 67.652,277.904 67.333,277.583 67.008 C 277.262 66.683,276.563 65.948,276.030 65.375 C 275.497 64.802,274.977 64.333,274.874 64.333 C 274.771 64.333,274.633 64.247,274.567 64.141 C 274.494 64.022,274.522 63.994,274.641 64.067 C 274.747 64.133,274.833 64.107,274.833 64.010 C 274.833 63.913,274.758 63.833,274.667 63.833 C 274.575 63.833,274.463 63.832,274.419 63.831 C 274.374 63.830,274.011 63.511,273.612 63.123 C 273.213 62.734,272.635 62.229,272.329 62.000 C 272.022 61.771,271.564 61.386,271.310 61.145 C 271.056 60.904,270.814 60.741,270.773 60.783 C 270.705 60.851,270.145 60.427,269.573 59.875 C 269.454 59.760,269.239 59.667,269.095 59.667 C 268.951 59.667,268.833 59.600,268.833 59.519 C 268.833 59.439,268.402 59.112,267.875 58.794 C 267.348 58.475,266.101 57.716,265.104 57.107 C 264.106 56.498,263.235 56.000,263.168 56.000 C 263.100 56.000,262.843 55.841,262.597 55.648 C 262.351 55.454,262.109 55.335,262.060 55.384 C 262.011 55.433,261.784 55.310,261.556 55.111 C 261.327 54.913,261.090 54.746,261.028 54.742 C 260.692 54.717,260.167 54.455,260.167 54.312 C 260.167 54.221,260.098 54.190,260.013 54.242 C 259.929 54.294,259.742 54.218,259.597 54.073 C 259.452 53.928,259.333 53.855,259.333 53.910 C 259.333 53.966,258.696 53.675,257.917 53.264 C 257.137 52.853,256.500 52.560,256.500 52.612 C 256.500 52.665,256.380 52.607,256.232 52.485 C 255.914 52.221,255.395 51.913,254.867 51.675 C 253.512 51.064,252.624 50.606,252.091 50.244 C 251.754 50.016,251.240 49.713,250.948 49.572 C 249.932 49.080,249.667 48.920,249.667 48.799 C 249.667 48.732,249.554 48.720,249.417 48.773 C 249.279 48.826,249.167 48.791,249.167 48.696 C 249.167 48.600,248.998 48.470,248.792 48.405 C 248.585 48.341,248.379 48.237,248.333 48.175 C 248.287 48.112,247.781 47.774,247.208 47.423 C 246.635 47.073,246.167 46.709,246.167 46.615 C 246.167 46.521,246.121 46.490,246.065 46.547 C 246.008 46.603,245.727 46.428,245.440 46.158 C 245.152 45.889,244.864 45.668,244.799 45.667 C 244.735 45.667,244.505 45.490,244.290 45.275 C 244.074 45.059,243.827 44.853,243.741 44.816 C 243.654 44.780,243.340 44.466,243.042 44.119 C 242.744 43.772,242.500 43.539,242.500 43.601 C 242.500 43.662,242.125 43.160,241.667 42.483 C 241.208 41.807,240.833 41.126,240.833 40.970 C 240.833 40.814,240.771 40.648,240.695 40.601 C 240.073 40.216,240.123 36.564,240.764 35.586 C 240.885 35.401,240.988 35.175,240.994 35.083 C 241.015 34.741,241.209 34.287,241.475 33.960 C 242.557 32.633,243.764 31.333,243.916 31.333 C 243.953 31.333,244.332 31.090,244.759 30.792 C 245.857 30.024,246.120 29.890,246.565 29.869 C 246.646 29.865,246.775 29.762,246.851 29.639 C 246.927 29.517,247.085 29.413,247.203 29.408 C 247.320 29.403,247.660 29.270,247.958 29.112 C 248.256 28.954,248.500 28.865,248.500 28.915 C 248.500 28.964,248.770 28.891,249.101 28.753 C 249.432 28.615,249.769 28.544,249.851 28.594 C 249.933 28.645,250.000 28.607,250.000 28.510 C 250.000 28.413,250.220 28.333,250.489 28.333 C 250.758 28.333,251.173 28.259,251.410 28.169 C 253.247 27.471,265.615 27.112,266.633 27.727 C 266.697 27.766,267.313 27.852,268.000 27.917 C 268.688 27.983,269.299 28.114,269.358 28.209 C 269.418 28.304,269.582 28.337,269.724 28.283 C 269.865 28.229,270.229 28.263,270.532 28.359 C 270.835 28.455,271.308 28.561,271.583 28.594 C 272.238 28.673,273.020 28.836,273.333 28.957 C 273.678 29.091,273.660 29.087,274.500 29.237 C 274.912 29.311,275.325 29.429,275.417 29.500 C 275.508 29.570,275.846 29.684,276.167 29.752 C 276.487 29.820,276.938 29.953,277.167 30.047 C 277.396 30.141,277.730 30.246,277.909 30.280 C 278.089 30.314,278.282 30.417,278.339 30.510 C 278.397 30.602,278.569 30.630,278.722 30.571 C 278.878 30.511,279.000 30.545,279.000 30.649 C 279.000 30.750,279.135 30.833,279.300 30.833 C 279.465 30.833,279.690 30.923,279.800 31.033 C 279.910 31.143,280.000 31.179,280.000 31.112 C 280.000 31.046,280.224 31.107,280.498 31.249 C 280.772 31.391,281.034 31.506,281.081 31.505 C 281.127 31.504,281.571 31.696,282.068 31.931 C 282.565 32.166,283.091 32.376,283.237 32.398 C 283.384 32.419,283.593 32.526,283.702 32.635 C 283.811 32.744,283.979 32.834,284.075 32.834 C 284.171 32.835,284.473 32.952,284.745 33.094 C 285.365 33.417,285.569 33.203,285.758 32.034 C 285.827 31.603,285.902 31.137,285.924 31.000 C 285.946 30.863,286.012 30.307,286.072 29.765 C 286.132 29.223,286.211 28.730,286.248 28.670 C 286.285 28.609,286.365 28.190,286.426 27.738 C 286.486 27.286,286.570 26.860,286.612 26.790 C 286.654 26.721,286.720 26.346,286.760 25.957 C 286.867 24.903,287.237 22.430,287.424 21.521 C 287.474 21.280,287.551 20.821,287.595 20.500 C 287.639 20.179,287.716 19.785,287.766 19.625 C 287.815 19.464,287.895 19.014,287.943 18.625 C 288.043 17.802,288.125 17.285,288.172 17.167 C 288.191 17.121,288.226 16.858,288.251 16.583 C 288.324 15.766,288.517 14.607,288.604 14.467 C 288.649 14.395,288.719 14.054,288.761 13.709 C 288.804 13.365,288.899 12.701,288.973 12.234 C 289.048 11.767,289.097 11.224,289.082 11.026 C 289.068 10.828,289.131 10.667,289.222 10.667 C 289.314 10.667,289.348 10.625,289.297 10.575 C 289.247 10.525,289.268 10.206,289.343 9.867 C 289.419 9.528,289.531 8.875,289.592 8.417 C 289.654 7.958,289.728 7.453,289.759 7.294 C 289.789 7.134,289.708 6.899,289.580 6.770 C 289.386 6.577,283.648 4.575,282.833 4.417 C 282.695 4.390,282.245 4.275,281.833 4.161 C 281.421 4.047,280.990 3.952,280.875 3.949 C 280.760 3.947,280.667 3.878,280.667 3.796 C 280.667 3.714,280.606 3.684,280.533 3.730 C 280.459 3.775,280.065 3.736,279.658 3.642 C 279.250 3.548,278.729 3.437,278.500 3.396 C 278.271 3.354,277.958 3.283,277.805 3.236 C 277.240 3.066,276.516 2.926,275.351 2.761 C 274.948 2.703,274.568 2.625,274.506 2.587 C 274.444 2.549,273.948 2.472,273.405 2.417 C 272.861 2.361,272.298 2.281,272.153 2.239 C 272.008 2.197,271.430 2.132,270.867 2.094 C 270.304 2.057,269.776 1.984,269.694 1.933 C 269.319 1.701,256.638 1.418,256.419 1.636 M344.811 3.743 C 344.752 3.802,344.377 3.881,343.977 3.919 C 341.725 4.130,339.990 4.568,338.650 5.263 C 338.228 5.482,337.822 5.606,337.748 5.539 C 337.674 5.472,337.662 5.502,337.722 5.607 C 337.786 5.719,337.675 5.837,337.454 5.892 C 337.246 5.945,336.911 6.142,336.708 6.330 C 336.506 6.519,336.310 6.653,336.273 6.628 C 336.179 6.566,334.167 8.193,334.167 8.332 C 334.167 8.394,333.860 8.776,333.485 9.181 C 332.781 9.941,331.833 11.257,331.833 11.473 C 331.833 11.634,331.242 12.791,331.028 13.049 C 330.937 13.160,330.858 13.308,330.854 13.378 C 330.850 13.448,330.693 13.852,330.507 14.274 C 330.320 14.697,330.167 15.110,330.167 15.194 C 330.167 15.277,330.060 15.511,329.930 15.714 C 329.800 15.917,329.668 16.233,329.638 16.417 C 329.608 16.600,329.489 16.850,329.373 16.972 C 329.258 17.094,329.206 17.262,329.258 17.347 C 329.310 17.431,329.282 17.500,329.196 17.500 C 329.037 17.500,328.810 18.041,328.776 18.500 C 328.766 18.637,328.662 18.850,328.544 18.972 C 328.426 19.094,328.368 19.255,328.414 19.329 C 328.460 19.404,328.381 19.510,328.238 19.565 C 328.096 19.619,328.017 19.726,328.064 19.802 C 328.111 19.878,328.053 20.126,327.936 20.353 C 327.661 20.882,326.802 23.128,326.828 23.249 C 326.848 23.345,326.315 24.353,326.166 24.500 C 326.119 24.546,325.978 24.883,325.850 25.250 C 325.723 25.617,325.442 26.306,325.226 26.781 C 325.010 27.256,324.833 27.688,324.833 27.741 C 324.833 27.794,324.677 28.169,324.487 28.574 C 324.296 28.979,324.122 29.410,324.100 29.531 C 324.078 29.651,323.888 30.125,323.677 30.583 C 322.890 32.298,322.762 32.585,322.754 32.667 C 322.724 32.974,322.263 33.833,322.129 33.833 C 322.038 33.833,322.007 33.945,322.060 34.081 C 322.112 34.218,321.954 34.724,321.708 35.206 C 321.462 35.689,321.281 36.151,321.306 36.235 C 321.331 36.318,321.274 36.434,321.180 36.492 C 321.085 36.550,320.975 36.782,320.933 37.007 C 320.892 37.232,320.844 37.454,320.826 37.500 C 320.808 37.546,320.803 37.640,320.814 37.708 C 320.824 37.777,320.746 37.833,320.639 37.833 C 320.532 37.833,320.492 37.881,320.551 37.940 C 320.609 37.998,320.494 38.274,320.296 38.553 C 320.097 38.832,320.024 39.005,320.134 38.937 C 320.244 38.869,320.193 39.062,320.020 39.365 C 319.847 39.668,319.575 40.273,319.414 40.708 C 319.253 41.144,319.073 41.500,319.013 41.500 C 318.953 41.500,318.894 41.631,318.881 41.792 C 318.869 41.952,318.622 42.608,318.333 43.250 C 318.044 43.892,317.798 44.543,317.786 44.697 C 317.774 44.851,317.711 44.944,317.646 44.904 C 317.530 44.832,317.239 45.794,317.302 46.042 C 317.319 46.110,317.277 46.167,317.207 46.167 C 317.138 46.167,316.994 46.373,316.886 46.625 C 316.504 47.521,316.181 48.341,316.177 48.421 C 316.175 48.467,316.058 48.727,315.917 49.000 C 315.775 49.273,315.671 49.516,315.684 49.540 C 315.697 49.564,315.557 49.921,315.374 50.333 C 315.042 51.078,314.602 52.174,314.571 52.333 C 314.543 52.477,313.656 54.394,313.396 54.875 C 313.259 55.128,313.194 55.409,313.251 55.502 C 313.308 55.594,313.238 55.714,313.095 55.769 C 312.952 55.823,312.869 55.923,312.910 55.990 C 312.952 56.057,312.848 56.405,312.680 56.764 C 312.387 57.391,311.938 58.493,311.905 58.667 C 311.882 58.786,311.520 59.691,311.339 60.083 C 310.572 61.738,310.203 62.599,310.225 62.683 C 310.239 62.737,310.146 62.907,310.019 63.061 C 309.892 63.214,309.774 63.469,309.758 63.628 C 309.741 63.787,309.564 64.279,309.364 64.722 C 309.164 65.165,309.000 65.599,309.000 65.686 C 309.000 65.774,308.879 66.030,308.731 66.256 C 308.583 66.482,308.519 66.667,308.590 66.667 C 308.661 66.667,308.607 66.798,308.471 66.958 C 308.335 67.119,308.087 67.625,307.921 68.083 C 307.756 68.542,307.566 68.992,307.500 69.083 C 307.433 69.175,307.330 69.456,307.270 69.708 C 307.210 69.960,307.089 70.167,307.002 70.167 C 306.915 70.167,306.888 70.282,306.942 70.423 C 306.996 70.564,306.931 70.808,306.797 70.965 C 306.663 71.122,306.379 71.737,306.166 72.333 C 305.953 72.929,305.717 73.498,305.642 73.598 C 305.566 73.697,305.398 74.072,305.268 74.431 C 305.138 74.790,304.824 75.533,304.569 76.083 C 304.315 76.633,304.095 77.121,304.080 77.167 C 304.066 77.212,303.999 77.375,303.931 77.529 C 303.863 77.682,303.792 77.914,303.773 78.045 C 303.754 78.176,303.602 78.491,303.435 78.745 C 303.237 79.047,303.210 79.167,303.358 79.091 C 303.482 79.028,303.456 79.080,303.301 79.207 C 303.146 79.335,302.994 79.628,302.963 79.859 C 302.932 80.090,302.770 80.488,302.603 80.744 C 302.413 81.034,302.383 81.158,302.524 81.075 C 302.671 80.989,302.657 81.055,302.484 81.263 C 302.207 81.597,301.612 83.000,301.747 83.000 C 301.790 83.000,301.601 83.380,301.327 83.845 C 301.053 84.309,300.910 84.639,301.010 84.577 C 301.138 84.498,301.142 84.556,301.024 84.774 C 300.628 85.504,299.749 87.431,299.742 87.583 C 299.738 87.675,299.642 87.919,299.528 88.125 C 299.415 88.331,299.367 88.500,299.422 88.500 C 299.477 88.500,299.366 88.720,299.174 88.989 C 298.983 89.258,298.840 89.539,298.857 89.614 C 298.874 89.689,298.714 90.125,298.501 90.583 C 298.289 91.042,298.096 91.492,298.074 91.583 C 298.052 91.675,297.878 92.107,297.688 92.544 C 297.499 92.980,297.343 93.375,297.342 93.421 C 297.341 93.466,297.224 93.728,297.082 94.002 C 296.941 94.276,296.866 94.500,296.916 94.500 C 296.967 94.500,296.877 94.699,296.718 94.942 C 296.559 95.185,296.412 95.466,296.392 95.567 C 296.337 95.836,295.389 98.086,295.142 98.533 C 295.026 98.744,294.949 99.010,294.972 99.125 C 294.996 99.240,294.936 99.333,294.841 99.333 C 294.745 99.333,294.667 99.516,294.667 99.740 C 294.667 99.964,294.605 100.185,294.530 100.232 C 294.408 100.307,293.436 102.625,293.439 102.833 C 293.440 102.879,293.341 103.016,293.220 103.137 C 293.099 103.258,293.000 103.446,292.999 103.554 C 292.998 103.899,292.223 105.667,292.118 105.563 C 292.063 105.508,292.026 105.602,292.036 105.773 C 292.046 105.944,291.864 106.471,291.632 106.945 C 291.206 107.815,290.922 108.645,290.973 108.875 C 290.988 108.944,290.925 109.000,290.833 109.000 C 290.742 109.000,290.667 109.110,290.667 109.245 C 290.667 109.380,290.520 109.773,290.342 110.120 C 290.163 110.466,289.940 110.956,289.846 111.208 C 289.752 111.460,289.600 111.667,289.509 111.667 C 289.418 111.667,289.384 111.772,289.434 111.902 C 289.484 112.031,289.404 112.368,289.258 112.652 C 289.111 112.935,289.036 113.167,289.091 113.167 C 289.146 113.167,289.073 113.285,288.929 113.429 C 288.785 113.573,288.667 113.868,288.667 114.085 C 288.667 114.303,288.598 114.523,288.514 114.575 C 288.340 114.682,287.409 117.018,287.464 117.208 C 287.484 117.277,287.443 117.333,287.374 117.333 C 287.250 117.333,287.079 117.693,286.663 118.833 C 286.545 119.154,286.236 119.891,285.975 120.470 C 285.714 121.049,285.500 121.606,285.500 121.707 C 285.500 121.808,285.388 122.014,285.251 122.166 C 285.113 122.318,284.984 122.642,284.964 122.888 C 284.944 123.133,284.869 123.333,284.797 123.333 C 284.725 123.333,284.667 123.483,284.667 123.667 C 284.667 123.850,284.567 124.000,284.445 124.000 C 284.319 124.000,284.234 124.158,284.249 124.363 C 284.264 124.562,284.100 125.056,283.885 125.461 C 283.669 125.866,283.472 126.321,283.447 126.473 C 283.421 126.626,283.310 126.914,283.200 127.114 C 283.090 127.314,283.000 127.522,283.000 127.576 C 283.000 127.896,316.499 127.647,316.671 127.326 C 316.767 127.147,316.809 127.000,316.765 127.000 C 316.721 127.000,316.912 126.456,317.190 125.792 C 317.467 125.127,317.729 124.403,317.771 124.183 C 317.814 123.962,317.924 123.642,318.016 123.471 C 318.107 123.300,318.141 123.093,318.090 123.011 C 318.039 122.929,318.060 122.837,318.135 122.806 C 318.254 122.758,318.641 121.780,318.850 121.000 C 318.887 120.862,318.968 120.711,319.031 120.663 C 319.095 120.615,319.182 120.390,319.226 120.163 C 319.270 119.936,319.537 119.196,319.820 118.519 C 320.102 117.842,320.333 117.201,320.333 117.096 C 320.333 116.990,320.475 116.626,320.648 116.287 C 320.821 115.948,320.884 115.719,320.789 115.778 C 320.676 115.847,320.667 115.803,320.763 115.651 C 320.845 115.522,320.919 115.379,320.928 115.333 C 320.937 115.287,321.035 115.025,321.146 114.750 C 321.256 114.475,321.536 113.725,321.767 113.083 C 321.998 112.442,322.264 111.776,322.359 111.603 C 322.453 111.431,322.565 111.093,322.608 110.853 C 322.651 110.613,322.794 110.199,322.926 109.933 C 323.059 109.667,323.167 109.349,323.167 109.227 C 323.167 108.908,364.200 108.888,364.463 109.207 C 364.558 109.322,364.684 109.679,364.744 110.000 C 364.804 110.321,364.882 110.733,364.918 110.917 C 364.954 111.100,365.023 111.513,365.071 111.833 C 365.120 112.154,365.234 112.669,365.324 112.977 C 365.414 113.285,365.481 113.585,365.474 113.644 C 365.467 113.702,365.475 113.787,365.493 113.833 C 365.673 114.295,365.966 116.077,365.910 116.369 C 365.877 116.538,365.915 116.636,365.993 116.588 C 366.107 116.517,366.364 117.683,366.350 118.206 C 366.348 118.273,366.453 118.631,366.583 119.000 C 366.714 119.369,366.817 119.709,366.813 119.755 C 366.808 119.801,366.851 120.118,366.907 120.461 C 366.964 120.803,367.046 121.373,367.090 121.726 C 367.133 122.080,367.210 122.435,367.260 122.516 C 367.309 122.596,367.419 123.057,367.502 123.539 C 367.586 124.022,367.707 124.642,367.770 124.917 C 367.834 125.192,367.893 125.585,367.901 125.792 C 367.910 125.998,367.973 126.167,368.042 126.167 C 368.110 126.167,368.151 126.223,368.133 126.292 C 368.114 126.360,368.155 126.697,368.223 127.039 L 368.347 127.661 383.049 127.622 L 397.750 127.583 397.730 127.000 C 397.708 126.355,397.622 125.826,397.336 124.583 C 397.230 124.125,397.113 123.515,397.075 123.229 C 397.038 122.942,396.932 122.511,396.841 122.270 C 396.750 122.030,396.705 121.833,396.742 121.833 C 396.780 121.833,396.737 121.590,396.648 121.292 C 396.496 120.784,396.443 120.516,396.267 119.375 C 396.228 119.123,396.117 118.711,396.019 118.460 C 395.922 118.208,395.889 117.882,395.946 117.735 C 396.002 117.587,395.964 117.414,395.861 117.350 C 395.757 117.286,395.635 116.938,395.588 116.575 C 395.454 115.527,395.195 114.178,395.019 113.608 C 394.929 113.320,394.815 112.760,394.765 112.365 C 394.715 111.969,394.641 111.593,394.601 111.528 C 394.517 111.393,394.289 110.065,394.273 109.625 C 394.267 109.465,394.215 109.333,394.159 109.333 C 394.102 109.333,394.046 109.240,394.035 109.125 C 393.923 107.965,393.795 107.240,393.656 106.979 C 393.564 106.807,393.538 106.667,393.598 106.667 C 393.658 106.667,393.634 106.573,393.543 106.458 C 393.453 106.344,393.376 106.138,393.372 106.000 C 393.360 105.541,393.184 104.593,392.941 103.679 C 392.808 103.181,392.735 102.682,392.778 102.570 C 392.821 102.459,392.776 102.318,392.678 102.257 C 392.580 102.197,392.500 101.941,392.500 101.690 C 392.500 101.439,392.406 101.132,392.292 101.009 C 392.124 100.828,392.127 100.809,392.308 100.912 C 392.491 101.016,392.497 100.973,392.339 100.678 C 392.232 100.478,392.177 100.225,392.215 100.116 C 392.254 100.006,392.216 99.729,392.130 99.500 C 392.045 99.271,391.945 98.896,391.909 98.667 C 391.873 98.438,391.763 97.950,391.666 97.583 C 391.568 97.217,391.463 96.767,391.433 96.583 C 391.402 96.400,391.240 95.537,391.072 94.667 C 390.904 93.796,390.782 93.027,390.800 92.958 C 390.818 92.890,390.777 92.833,390.708 92.833 C 390.640 92.833,390.576 92.665,390.568 92.458 C 390.559 92.252,390.491 91.821,390.417 91.500 C 390.342 91.179,390.274 90.748,390.266 90.542 C 390.257 90.335,390.189 90.167,390.115 90.167 C 390.041 90.167,390.016 90.109,390.059 90.039 C 390.103 89.969,390.028 89.500,389.893 88.997 C 389.758 88.495,389.645 87.840,389.641 87.542 C 389.637 87.244,389.578 87.000,389.511 87.000 C 389.444 87.000,389.383 86.906,389.376 86.792 C 389.369 86.677,389.314 86.321,389.254 86.000 C 389.194 85.679,389.119 85.229,389.086 85.000 C 389.054 84.771,389.015 84.583,389.001 84.583 C 388.973 84.583,388.922 84.368,388.782 83.667 C 388.736 83.438,388.580 82.742,388.434 82.121 C 388.289 81.500,388.178 80.937,388.188 80.871 C 388.198 80.804,388.192 80.712,388.174 80.667 C 388.122 80.535,388.006 79.954,387.940 79.500 C 387.907 79.271,387.798 78.783,387.697 78.417 C 387.375 77.236,387.273 76.756,387.281 76.458 C 387.286 76.298,387.226 76.167,387.148 76.167 C 387.070 76.167,387.033 75.942,387.065 75.667 C 387.097 75.392,387.053 75.167,386.968 75.167 C 386.883 75.167,386.860 75.092,386.917 75.000 C 386.973 74.908,386.959 74.740,386.885 74.625 C 386.811 74.510,386.743 74.192,386.733 73.917 C 386.723 73.642,386.595 72.981,386.448 72.449 C 386.211 71.591,386.062 70.851,385.908 69.750 C 385.882 69.567,385.845 69.398,385.826 69.375 C 385.783 69.323,385.777 69.300,385.507 68.083 C 385.385 67.533,385.267 66.933,385.244 66.750 C 385.222 66.567,385.125 66.117,385.028 65.750 C 384.932 65.383,384.806 64.757,384.749 64.358 C 384.692 63.959,384.573 63.442,384.485 63.210 C 384.396 62.977,384.359 62.752,384.401 62.710 C 384.444 62.667,384.409 62.449,384.324 62.224 C 384.238 62.000,384.130 61.513,384.084 61.141 C 384.037 60.770,383.948 60.384,383.886 60.283 C 383.823 60.183,383.749 59.928,383.720 59.717 C 383.605 58.886,383.526 58.417,383.501 58.417 C 383.464 58.417,383.346 57.828,383.282 57.326 C 383.253 57.092,383.172 56.811,383.104 56.699 C 383.035 56.588,383.026 56.348,383.084 56.165 C 383.142 55.983,383.125 55.833,383.048 55.833 C 382.970 55.833,382.889 55.665,382.868 55.458 C 382.819 54.969,382.755 54.659,382.619 54.250 C 382.559 54.067,382.476 53.654,382.436 53.333 C 382.395 53.012,382.322 52.637,382.273 52.500 C 382.223 52.362,382.141 51.960,382.089 51.606 C 382.038 51.251,381.967 50.914,381.931 50.856 C 381.895 50.797,381.823 50.487,381.769 50.167 C 381.624 49.292,381.513 48.761,381.239 47.625 C 381.222 47.556,381.194 47.481,381.176 47.458 C 381.158 47.435,381.117 47.229,381.085 47.000 C 381.053 46.771,380.981 46.358,380.925 46.083 C 380.869 45.808,380.790 45.349,380.749 45.062 C 380.708 44.775,380.602 44.352,380.514 44.121 C 380.426 43.890,380.393 43.663,380.439 43.616 C 380.486 43.570,380.412 43.202,380.275 42.800 C 380.058 42.159,379.920 41.509,379.600 39.628 C 379.558 39.377,379.488 39.115,379.446 39.044 C 379.404 38.974,379.320 38.547,379.259 38.095 C 379.199 37.643,379.112 37.214,379.068 37.141 C 379.023 37.068,378.953 36.763,378.912 36.463 C 378.803 35.658,378.699 35.185,378.488 34.548 C 378.385 34.234,378.339 33.938,378.387 33.890 C 378.435 33.842,378.379 33.529,378.262 33.193 C 378.145 32.858,378.082 32.490,378.122 32.375 C 378.162 32.260,378.128 32.167,378.046 32.167 C 377.965 32.167,377.881 31.863,377.859 31.492 C 377.837 31.121,377.745 30.623,377.655 30.385 C 377.565 30.148,377.528 29.917,377.573 29.872 C 377.618 29.826,377.575 29.640,377.477 29.458 C 377.380 29.276,377.300 28.873,377.300 28.564 C 377.300 28.254,377.244 28.036,377.175 28.078 C 377.107 28.120,377.042 27.952,377.031 27.703 C 377.020 27.454,376.962 27.063,376.902 26.833 C 376.842 26.604,376.785 26.229,376.777 26.000 C 376.768 25.771,376.711 25.546,376.650 25.500 C 376.589 25.454,376.501 25.117,376.455 24.750 C 376.409 24.383,376.329 23.971,376.277 23.833 C 376.225 23.696,376.133 23.283,376.073 22.917 C 376.013 22.550,375.944 22.137,375.921 22.000 C 375.898 21.863,375.838 21.637,375.787 21.500 C 375.672 21.192,375.572 20.701,375.176 18.500 C 374.973 17.366,374.881 16.945,374.825 16.875 C 374.807 16.852,374.776 16.702,374.758 16.542 C 374.739 16.381,374.658 15.950,374.578 15.583 C 374.372 14.646,374.379 14.671,374.341 14.625 C 374.288 14.559,374.177 13.965,374.101 13.333 C 374.062 13.012,373.913 12.338,373.768 11.833 C 373.624 11.329,373.547 10.785,373.598 10.625 C 373.648 10.465,373.622 10.333,373.539 10.333 C 373.456 10.333,373.383 10.240,373.376 10.125 C 373.351 9.720,373.204 8.913,373.111 8.667 C 373.059 8.529,372.974 8.129,372.924 7.778 C 372.873 7.427,372.749 6.987,372.649 6.800 C 372.507 6.535,372.513 6.488,372.676 6.589 C 372.825 6.681,372.843 6.651,372.739 6.484 C 372.658 6.355,372.579 6.175,372.562 6.083 C 372.545 5.992,372.485 5.654,372.429 5.333 C 372.373 5.012,372.285 4.544,372.234 4.292 L 372.140 3.833 359.260 3.833 C 352.176 3.833,346.051 3.789,345.648 3.734 C 345.246 3.680,344.869 3.683,344.811 3.743 M114.489 4.450 C 114.358 4.789,114.269 5.127,114.292 5.200 C 114.315 5.273,114.246 5.333,114.139 5.333 C 114.032 5.333,113.986 5.374,114.036 5.425 C 114.086 5.475,113.904 6.094,113.631 6.800 C 113.358 7.506,113.119 8.208,113.099 8.361 C 113.080 8.514,112.965 8.758,112.845 8.903 C 112.724 9.048,112.682 9.167,112.750 9.167 C 112.818 9.167,112.786 9.273,112.679 9.402 C 112.571 9.532,112.449 9.827,112.407 10.058 C 112.365 10.289,112.181 10.827,111.999 11.253 C 111.816 11.679,111.667 12.097,111.667 12.182 C 111.667 12.267,111.522 12.655,111.346 13.043 C 111.059 13.674,110.200 15.987,110.092 16.417 C 110.043 16.613,109.879 17.029,109.534 17.833 C 109.396 18.154,109.272 18.492,109.257 18.583 C 109.243 18.675,109.167 18.900,109.089 19.083 C 108.617 20.193,108.366 20.977,108.454 21.065 C 108.510 21.121,108.468 21.167,108.361 21.167 C 108.254 21.167,108.167 21.282,108.167 21.422 C 108.167 21.562,108.043 21.956,107.892 22.297 C 107.741 22.638,107.591 23.010,107.559 23.125 C 107.526 23.240,107.474 23.427,107.443 23.542 C 107.411 23.656,107.235 24.087,107.051 24.500 C 106.867 24.912,106.616 25.645,106.493 26.128 C 106.369 26.611,106.151 27.136,106.007 27.295 C 105.863 27.454,105.750 27.785,105.755 28.030 C 105.761 28.276,105.714 28.446,105.650 28.407 C 105.551 28.345,105.332 28.907,105.256 29.417 C 105.242 29.508,105.171 29.733,105.098 29.917 C 105.024 30.100,104.804 30.662,104.609 31.167 C 104.413 31.671,104.208 32.121,104.153 32.167 C 104.098 32.212,104.003 32.512,103.942 32.833 C 103.882 33.154,103.724 33.642,103.592 33.917 C 103.459 34.192,103.163 34.942,102.932 35.583 C 102.702 36.225,102.423 36.975,102.312 37.250 C 102.202 37.525,102.105 37.800,102.097 37.861 C 102.090 37.922,102.027 38.028,101.958 38.097 C 101.890 38.166,101.833 38.397,101.833 38.611 C 101.833 38.825,101.746 39.000,101.639 39.000 C 101.532 39.000,101.488 39.044,101.541 39.097 C 101.595 39.150,101.531 39.450,101.400 39.764 C 101.269 40.077,101.215 40.333,101.280 40.333 C 101.344 40.333,101.251 40.451,101.074 40.596 C 100.896 40.740,100.849 40.807,100.971 40.745 C 101.142 40.657,101.153 40.701,101.020 40.941 C 100.870 41.213,100.614 41.805,100.165 42.917 C 99.864 43.662,99.782 43.934,99.751 44.285 C 99.733 44.487,99.613 44.780,99.484 44.935 C 99.355 45.091,99.274 45.225,99.303 45.234 C 99.363 45.252,99.253 45.561,98.402 47.783 C 98.078 48.627,97.803 49.465,97.789 49.647 C 97.775 49.828,97.705 49.940,97.632 49.895 C 97.515 49.823,97.426 50.201,97.480 50.542 C 97.491 50.610,97.413 50.667,97.306 50.667 C 97.199 50.667,97.161 50.717,97.223 50.778 C 97.284 50.840,97.220 51.065,97.080 51.278 C 96.940 51.492,96.874 51.667,96.932 51.667 C 96.990 51.667,96.909 51.863,96.752 52.104 C 96.563 52.392,96.542 52.495,96.691 52.405 C 96.874 52.295,96.878 52.317,96.710 52.525 C 96.596 52.666,96.552 52.830,96.613 52.890 C 96.673 52.951,96.635 53.000,96.528 53.000 C 96.421 53.000,96.333 53.132,96.333 53.294 C 96.333 53.456,96.183 53.868,96.000 54.211 C 95.816 54.553,95.703 54.833,95.749 54.833 C 95.795 54.833,95.689 55.208,95.515 55.667 C 95.341 56.125,95.248 56.501,95.308 56.503 C 95.368 56.504,95.304 56.576,95.167 56.663 C 95.029 56.750,94.911 56.880,94.904 56.952 C 94.842 57.581,94.596 58.333,94.454 58.333 C 94.357 58.333,94.325 58.381,94.383 58.439 C 94.441 58.496,94.401 58.703,94.294 58.897 C 94.187 59.091,94.085 59.325,94.067 59.417 C 94.050 59.508,93.834 60.108,93.588 60.750 C 93.342 61.392,93.115 62.039,93.083 62.189 C 93.052 62.339,92.951 62.602,92.859 62.773 C 92.710 63.048,92.483 63.602,92.424 63.833 C 92.413 63.879,92.259 64.329,92.083 64.833 C 91.908 65.337,91.761 65.800,91.757 65.861 C 91.753 65.922,91.694 66.028,91.625 66.097 C 91.556 66.166,91.500 66.360,91.500 66.528 C 91.500 66.696,91.427 66.833,91.339 66.833 C 91.250 66.833,91.217 66.936,91.265 67.062 C 91.313 67.188,91.230 67.413,91.081 67.562 C 90.932 67.711,90.854 67.833,90.909 67.833 C 90.963 67.833,90.885 68.021,90.735 68.250 C 90.585 68.479,90.503 68.667,90.553 68.667 C 90.644 68.667,89.743 71.243,89.536 71.574 C 89.476 71.671,89.411 71.852,89.392 71.976 C 89.373 72.100,89.197 72.599,89.000 73.083 C 88.803 73.568,88.625 74.066,88.605 74.191 C 88.584 74.315,88.463 74.604,88.336 74.833 C 88.208 75.063,88.094 75.362,88.081 75.500 C 88.054 75.803,87.059 78.415,86.744 79.011 C 86.619 79.246,86.480 79.646,86.434 79.900 C 86.388 80.154,86.253 80.483,86.133 80.630 C 85.955 80.850,85.955 80.874,86.137 80.765 C 86.310 80.661,86.321 80.699,86.187 80.941 C 86.036 81.213,85.780 81.805,85.331 82.917 C 85.022 83.682,84.949 83.925,84.982 84.068 C 85.002 84.151,84.944 84.265,84.853 84.321 C 84.762 84.377,84.661 84.609,84.628 84.836 C 84.595 85.064,84.485 85.400,84.384 85.583 C 84.282 85.767,84.182 85.992,84.161 86.083 C 84.123 86.246,84.011 86.549,83.664 87.430 C 83.571 87.666,83.407 87.830,83.298 87.794 C 83.023 87.702,82.805 86.834,83.056 86.831 C 83.179 86.829,83.189 86.783,83.083 86.706 C 82.992 86.638,82.895 86.433,82.868 86.250 C 82.841 86.067,82.775 85.598,82.721 85.208 C 82.667 84.819,82.572 84.500,82.509 84.500 C 82.446 84.500,82.383 84.294,82.370 84.042 C 82.325 83.153,82.126 82.082,81.991 81.997 C 81.916 81.949,81.877 81.703,81.905 81.451 C 81.932 81.198,81.897 80.956,81.827 80.912 C 81.756 80.869,81.740 80.671,81.792 80.474 C 81.846 80.267,81.819 80.156,81.727 80.213 C 81.640 80.267,81.576 80.110,81.586 79.864 C 81.595 79.618,81.564 79.342,81.515 79.250 C 81.392 79.020,81.312 78.652,81.287 78.208 C 81.276 78.002,81.210 77.833,81.140 77.833 C 81.071 77.833,81.035 77.571,81.060 77.250 C 81.085 76.929,81.063 76.667,81.011 76.667 C 80.959 76.667,80.904 76.498,80.888 76.292 C 80.830 75.550,80.668 74.815,80.490 74.481 C 80.390 74.294,80.349 74.034,80.399 73.904 C 80.449 73.773,80.422 73.667,80.338 73.667 C 80.255 73.667,80.193 73.535,80.200 73.375 C 80.226 72.800,79.972 71.574,79.725 71.083 C 79.587 70.808,79.324 70.171,79.141 69.667 C 78.957 69.162,78.703 68.525,78.575 68.250 C 78.448 67.975,77.774 66.475,77.078 64.917 C 75.892 62.261,74.313 59.164,73.169 57.250 C 72.895 56.792,72.613 56.304,72.543 56.167 C 72.472 56.029,72.152 55.481,71.832 54.948 C 71.512 54.415,71.175 53.852,71.082 53.698 C 70.563 52.827,68.340 49.607,66.804 47.500 C 66.312 46.824,63.705 43.537,63.500 43.333 C 63.454 43.288,62.968 42.725,62.420 42.083 C 60.216 39.503,56.139 35.344,53.761 33.248 C 53.034 32.608,52.320 31.971,52.176 31.833 C 48.876 28.690,35.833 19.563,35.833 20.396 C 35.833 20.431,35.947 20.731,36.086 21.063 C 36.224 21.395,36.301 21.667,36.256 21.667 C 36.212 21.667,36.247 21.856,36.335 22.088 C 36.499 22.518,36.648 23.133,36.746 23.782 C 36.777 23.983,36.851 24.227,36.910 24.323 C 36.970 24.420,37.045 24.630,37.078 24.791 C 37.110 24.952,37.261 25.447,37.414 25.891 C 37.566 26.334,37.650 26.803,37.600 26.932 C 37.551 27.061,37.596 27.167,37.700 27.167 C 37.804 27.167,37.839 27.217,37.777 27.278 C 37.716 27.340,37.784 27.571,37.929 27.793 C 38.075 28.014,38.155 28.233,38.109 28.280 C 38.063 28.326,38.127 28.702,38.251 29.115 C 38.375 29.528,38.437 29.971,38.387 30.100 C 38.338 30.228,38.368 30.333,38.454 30.333 C 38.541 30.333,38.618 30.427,38.626 30.542 C 38.656 30.941,38.850 31.720,38.986 31.984 C 39.163 32.328,39.400 33.518,39.350 33.808 C 39.329 33.932,39.383 33.989,39.471 33.934 C 39.560 33.880,39.677 34.153,39.731 34.543 C 39.850 35.384,39.902 35.632,40.061 36.112 C 40.203 36.542,40.336 37.081,40.452 37.708 C 40.499 37.960,40.594 38.167,40.663 38.167 C 40.732 38.167,40.775 38.335,40.759 38.542 C 40.744 38.748,40.784 38.992,40.850 39.083 C 40.915 39.175,41.006 39.489,41.052 39.781 C 41.097 40.074,41.197 40.411,41.273 40.531 C 41.349 40.652,41.414 40.862,41.417 41.000 C 41.419 41.137,41.467 41.325,41.522 41.417 C 41.578 41.508,41.671 41.846,41.729 42.167 C 41.922 43.233,41.969 43.413,42.182 43.917 C 42.299 44.192,42.407 44.532,42.423 44.673 C 42.438 44.815,42.542 45.207,42.654 45.545 C 42.766 45.883,42.813 46.231,42.759 46.319 C 42.705 46.406,42.737 46.524,42.831 46.582 C 42.924 46.639,43.000 46.841,43.000 47.029 C 43.000 47.391,43.439 48.870,43.702 49.392 C 43.822 49.630,43.807 49.671,43.637 49.569 C 43.458 49.461,43.456 49.485,43.625 49.693 C 43.739 49.835,43.849 50.149,43.869 50.392 C 43.890 50.635,43.952 50.833,44.009 50.833 C 44.065 50.833,44.119 50.927,44.128 51.042 C 44.174 51.596,44.282 52.115,44.386 52.284 C 44.449 52.386,44.517 52.664,44.537 52.902 C 44.557 53.139,44.627 53.333,44.693 53.333 C 44.760 53.333,44.785 53.483,44.750 53.667 C 44.715 53.850,44.752 54.000,44.833 54.000 C 44.913 54.000,44.981 54.131,44.983 54.292 C 44.988 54.772,45.124 55.375,45.399 56.136 C 45.542 56.531,45.652 56.906,45.643 56.969 C 45.634 57.032,45.642 57.121,45.660 57.167 C 45.712 57.301,45.840 57.889,45.895 58.250 C 45.923 58.433,46.068 58.818,46.217 59.104 C 46.365 59.390,46.450 59.661,46.405 59.706 C 46.361 59.750,46.411 60.004,46.517 60.269 C 46.624 60.533,46.728 60.938,46.750 61.167 C 46.793 61.630,46.940 62.093,47.191 62.559 C 47.321 62.800,47.309 62.839,47.137 62.735 C 46.965 62.632,46.958 62.656,47.105 62.843 C 47.209 62.975,47.422 63.646,47.578 64.333 C 47.902 65.757,47.903 65.762,48.259 67.000 C 48.404 67.504,48.544 67.992,48.569 68.083 C 48.595 68.175,48.674 68.384,48.745 68.549 C 48.816 68.713,48.830 68.892,48.776 68.946 C 48.723 69.000,48.755 69.187,48.849 69.363 C 49.103 69.837,49.659 72.045,49.563 72.199 C 49.518 72.273,49.544 72.333,49.621 72.333 C 49.699 72.333,49.777 72.465,49.795 72.625 C 49.842 73.034,49.904 73.281,50.240 74.395 C 50.403 74.934,50.554 75.459,50.576 75.562 C 50.598 75.665,50.655 75.862,50.702 76.000 C 50.776 76.217,51.008 77.129,51.274 78.250 C 51.379 78.692,51.406 78.789,51.669 79.667 C 51.792 80.079,51.900 80.529,51.908 80.667 C 51.921 80.896,52.380 82.582,53.178 85.333 C 53.350 85.929,53.527 86.710,53.570 87.068 C 53.613 87.426,53.708 87.763,53.782 87.818 C 53.856 87.872,53.932 88.001,53.951 88.104 C 53.970 88.206,54.033 88.506,54.090 88.770 C 54.148 89.034,54.212 89.380,54.233 89.538 C 54.254 89.697,54.323 89.878,54.385 89.941 C 54.448 90.004,54.500 90.221,54.500 90.424 C 54.500 90.627,54.610 91.055,54.743 91.375 C 54.877 91.696,54.940 92.005,54.882 92.062 C 54.825 92.120,54.878 92.167,55.000 92.167 C 55.122 92.167,55.180 92.209,55.129 92.260 C 55.077 92.311,55.143 92.743,55.275 93.218 C 55.407 93.694,55.556 94.271,55.607 94.500 C 55.737 95.091,55.771 95.218,55.876 95.500 C 55.928 95.638,56.094 96.274,56.246 96.913 C 56.399 97.553,56.612 98.187,56.720 98.320 C 56.876 98.514,56.871 98.536,56.692 98.429 C 56.508 98.318,56.503 98.360,56.664 98.661 C 56.772 98.863,56.823 99.066,56.778 99.111 C 56.732 99.157,56.802 99.450,56.933 99.764 C 57.064 100.077,57.136 100.333,57.094 100.333 C 57.052 100.333,57.123 100.586,57.252 100.895 C 57.381 101.205,57.440 101.505,57.382 101.562 C 57.325 101.620,57.378 101.667,57.500 101.667 C 57.622 101.667,57.679 101.710,57.626 101.763 C 57.573 101.816,57.644 102.195,57.783 102.606 C 57.923 103.016,57.994 103.395,57.941 103.448 C 57.888 103.501,57.928 103.698,58.028 103.886 C 58.191 104.191,58.963 107.017,59.061 107.670 C 59.082 107.809,59.157 108.016,59.228 108.131 C 59.299 108.245,59.388 108.506,59.427 108.711 C 59.466 108.916,59.541 109.271,59.595 109.500 C 59.649 109.729,59.700 110.010,59.708 110.125 C 59.716 110.240,59.786 110.333,59.864 110.333 C 59.943 110.333,59.974 110.514,59.934 110.736 C 59.893 110.957,59.907 111.184,59.963 111.241 C 60.075 111.353,60.175 111.736,60.226 112.250 C 60.244 112.433,60.353 112.752,60.469 112.958 C 60.584 113.165,60.639 113.333,60.590 113.333 C 60.541 113.333,60.634 113.690,60.797 114.125 C 60.960 114.560,61.091 115.067,61.088 115.250 C 61.085 115.433,61.132 115.621,61.192 115.667 C 61.252 115.712,61.340 115.975,61.389 116.250 C 61.438 116.525,61.662 117.402,61.887 118.199 C 62.112 118.996,62.255 119.690,62.204 119.741 C 62.153 119.792,62.211 119.833,62.333 119.833 C 62.456 119.833,62.512 119.876,62.460 119.929 C 62.407 119.982,62.436 120.263,62.525 120.554 C 62.614 120.845,62.726 121.271,62.776 121.500 C 62.901 122.082,62.936 122.215,63.045 122.500 C 63.097 122.638,63.178 122.938,63.225 123.167 C 63.298 123.522,63.438 124.090,63.759 125.333 C 63.795 125.471,63.907 125.883,64.010 126.250 C 64.112 126.617,64.205 127.047,64.217 127.205 C 64.237 127.477,65.234 127.494,81.175 127.498 L 98.112 127.503 98.306 127.077 C 98.413 126.843,98.500 126.547,98.500 126.421 C 98.500 126.294,98.601 126.089,98.725 125.966 C 98.905 125.786,99.355 124.722,99.415 124.333 C 99.423 124.287,99.522 124.081,99.637 123.875 C 99.751 123.669,99.796 123.500,99.735 123.500 C 99.675 123.500,99.726 123.379,99.849 123.231 C 100.039 123.002,100.391 122.192,100.564 121.583 C 100.737 120.977,101.229 120.000,101.361 120.000 C 101.448 120.000,101.475 119.927,101.420 119.838 C 101.365 119.749,101.437 119.449,101.581 119.172 C 101.724 118.894,101.793 118.667,101.734 118.667 C 101.674 118.667,101.705 118.571,101.802 118.454 C 101.900 118.337,102.248 117.499,102.576 116.592 C 102.904 115.685,103.256 114.844,103.357 114.722 C 103.458 114.600,103.486 114.500,103.418 114.500 C 103.350 114.500,103.416 114.315,103.564 114.089 C 103.712 113.863,103.833 113.570,103.833 113.436 C 103.833 113.303,103.906 113.169,103.995 113.139 C 104.084 113.108,104.182 112.933,104.212 112.750 C 104.242 112.567,104.359 112.248,104.472 112.042 C 104.586 111.835,104.637 111.667,104.585 111.667 C 104.534 111.667,104.623 111.468,104.782 111.225 C 104.941 110.982,105.088 110.701,105.109 110.600 C 105.158 110.369,106.104 107.984,106.521 107.043 C 106.693 106.655,106.833 106.239,106.833 106.118 C 106.833 105.998,106.914 105.820,107.012 105.722 C 107.110 105.624,107.210 105.440,107.234 105.313 C 107.288 105.030,107.566 104.366,108.131 103.167 C 108.368 102.662,108.565 102.138,108.567 102.000 C 108.570 101.862,108.629 101.709,108.699 101.659 C 108.768 101.610,108.850 101.402,108.881 101.199 C 108.912 100.995,109.027 100.740,109.136 100.631 C 109.244 100.522,109.333 100.297,109.333 100.131 C 109.333 99.965,109.403 99.699,109.489 99.539 C 109.575 99.380,109.743 99.006,109.863 98.708 C 109.983 98.410,110.122 98.167,110.172 98.167 C 110.222 98.167,110.275 98.005,110.290 97.807 C 110.304 97.609,110.377 97.402,110.450 97.348 C 110.523 97.294,110.609 97.100,110.641 96.917 C 110.673 96.733,110.800 96.396,110.924 96.167 C 111.048 95.938,111.612 94.587,112.177 93.167 C 112.743 91.746,113.260 90.546,113.328 90.500 C 113.395 90.454,113.500 90.192,113.561 89.917 C 113.726 89.178,113.746 89.121,113.995 88.667 C 114.120 88.438,114.211 88.212,114.197 88.167 C 114.137 87.976,114.368 87.500,114.521 87.500 C 114.612 87.500,114.643 87.430,114.590 87.345 C 114.538 87.260,114.571 87.143,114.664 87.085 C 114.757 87.027,114.833 86.851,114.833 86.692 C 114.833 86.534,114.983 86.110,115.167 85.750 C 115.350 85.390,115.500 85.000,115.500 84.881 C 115.500 84.763,115.575 84.667,115.667 84.667 C 115.758 84.667,115.816 84.610,115.794 84.542 C 115.755 84.419,116.046 83.580,116.360 82.910 C 116.448 82.722,116.538 82.460,116.560 82.326 C 116.583 82.193,116.841 81.572,117.134 80.947 C 117.427 80.322,117.667 79.750,117.667 79.676 C 117.667 79.602,117.857 79.101,118.089 78.562 C 118.321 78.024,118.573 77.433,118.649 77.250 C 118.725 77.067,118.924 76.617,119.091 76.250 C 119.258 75.883,119.403 75.546,119.413 75.500 C 119.506 75.072,119.918 74.007,120.109 73.704 C 120.240 73.495,120.309 73.262,120.262 73.187 C 120.216 73.111,120.285 72.907,120.417 72.733 C 120.548 72.559,120.658 72.295,120.661 72.145 C 120.664 71.996,120.777 71.783,120.911 71.671 C 121.046 71.559,121.146 71.419,121.134 71.359 C 121.090 71.143,121.391 70.242,121.629 69.875 C 121.762 69.669,121.824 69.500,121.765 69.500 C 121.707 69.500,121.782 69.313,121.932 69.083 C 122.082 68.854,122.154 68.667,122.091 68.667 C 122.029 68.667,122.132 68.449,122.322 68.183 C 122.512 67.916,122.667 67.648,122.667 67.587 C 122.667 67.525,122.983 66.674,123.369 65.696 C 123.755 64.717,124.077 63.879,124.084 63.833 C 124.092 63.788,124.263 63.384,124.465 62.937 C 124.668 62.490,124.833 62.007,124.833 61.865 C 124.833 61.722,125.002 61.419,125.208 61.192 C 125.415 60.965,125.471 60.844,125.333 60.922 C 125.118 61.044,125.115 61.025,125.312 60.782 C 125.438 60.627,125.492 60.500,125.433 60.500 C 125.374 60.500,125.449 60.313,125.599 60.083 C 125.749 59.854,125.820 59.667,125.758 59.667 C 125.695 59.667,125.804 59.442,126.000 59.167 C 126.196 58.892,126.311 58.667,126.255 58.667 C 126.200 58.667,126.248 58.498,126.362 58.292 C 126.477 58.085,126.551 57.823,126.528 57.708 C 126.504 57.594,126.556 57.500,126.641 57.500 C 126.727 57.500,126.848 57.296,126.911 57.047 C 126.973 56.798,127.202 56.217,127.418 55.755 C 127.634 55.294,128.005 54.398,128.242 53.763 C 128.479 53.129,128.733 52.529,128.805 52.430 C 128.878 52.331,128.930 52.137,128.921 52.000 C 128.913 51.862,128.968 51.706,129.044 51.652 C 129.121 51.598,129.196 51.391,129.210 51.193 C 129.225 50.995,129.294 50.833,129.362 50.833 C 129.431 50.833,129.577 50.533,129.686 50.167 C 129.796 49.800,129.933 49.500,129.991 49.500 C 130.049 49.500,130.107 49.345,130.122 49.156 C 130.136 48.966,130.309 48.479,130.505 48.073 C 130.702 47.666,130.882 47.240,130.906 47.125 C 131.013 46.612,131.676 45.139,131.864 44.997 C 131.927 44.949,132.005 44.724,132.038 44.497 C 132.071 44.269,132.201 43.896,132.327 43.667 C 132.453 43.438,132.553 43.212,132.549 43.167 C 132.535 42.998,132.714 42.557,133.240 41.466 C 133.536 40.851,133.710 40.390,133.627 40.441 C 133.430 40.563,133.865 39.788,134.083 39.628 C 134.175 39.560,134.200 39.504,134.139 39.503 C 134.078 39.501,134.283 38.881,134.594 38.125 C 134.906 37.369,135.162 36.656,135.164 36.542 C 135.165 36.427,135.242 36.333,135.333 36.333 C 135.425 36.333,135.485 36.277,135.467 36.208 C 135.408 35.986,135.699 35.259,135.978 34.930 C 136.145 34.733,136.163 34.660,136.024 34.742 C 135.861 34.838,135.872 34.763,136.062 34.473 C 136.206 34.253,136.355 33.925,136.392 33.744 C 136.504 33.196,136.898 32.333,137.037 32.333 C 137.108 32.333,137.167 32.115,137.167 31.847 C 137.167 31.580,137.225 31.336,137.295 31.306 C 137.366 31.275,137.749 30.387,138.146 29.333 C 138.543 28.279,138.976 27.212,139.108 26.962 C 139.240 26.713,139.347 26.470,139.348 26.424 C 139.348 26.377,139.468 26.057,139.615 25.711 C 139.761 25.366,139.883 24.990,139.885 24.875 C 139.887 24.760,139.946 24.667,140.017 24.667 C 140.087 24.667,140.193 24.498,140.252 24.292 C 140.464 23.555,141.063 22.167,141.170 22.167 C 141.229 22.167,141.278 22.064,141.278 21.937 C 141.278 21.593,142.276 19.056,142.500 18.833 C 142.546 18.787,142.762 18.225,142.980 17.583 C 143.199 16.942,143.532 16.160,143.720 15.845 C 143.909 15.531,143.986 15.322,143.892 15.380 C 143.797 15.439,143.890 15.134,144.098 14.703 C 144.305 14.272,144.448 13.893,144.415 13.860 C 144.382 13.827,144.575 13.394,144.844 12.898 C 145.112 12.401,145.320 11.940,145.305 11.873 C 145.291 11.805,145.439 11.393,145.634 10.956 C 145.830 10.520,145.991 10.125,145.992 10.079 C 145.993 10.034,146.109 9.773,146.250 9.500 C 146.391 9.227,146.501 8.984,146.494 8.960 C 146.488 8.936,146.599 8.638,146.741 8.297 C 146.883 7.956,147.000 7.600,147.000 7.505 C 147.000 7.411,147.063 7.333,147.139 7.333 C 147.215 7.333,147.278 7.240,147.279 7.125 C 147.279 7.010,147.546 6.265,147.871 5.468 C 148.197 4.671,148.421 3.977,148.370 3.926 C 148.319 3.875,140.729 3.833,131.503 3.833 L 114.729 3.833 114.489 4.450 M161.490 4.042 C 161.445 5.034,161.279 6.290,161.166 6.501 C 161.090 6.643,161.045 7.001,161.065 7.296 C 161.086 7.592,161.047 7.833,160.978 7.833 C 160.910 7.833,160.860 7.965,160.868 8.125 C 160.882 8.401,160.817 8.849,160.552 10.292 C 160.489 10.635,160.442 11.159,160.447 11.455 C 160.452 11.781,160.389 11.951,160.286 11.887 C 160.192 11.829,160.158 11.851,160.210 11.935 C 160.262 12.020,160.200 12.491,160.073 12.983 C 159.945 13.475,159.877 13.935,159.921 14.006 C 159.964 14.077,159.882 14.724,159.737 15.443 C 159.592 16.162,159.441 17.078,159.400 17.480 C 159.360 17.881,159.285 18.276,159.235 18.358 C 159.185 18.439,159.109 18.861,159.067 19.295 C 158.998 20.013,158.905 20.618,158.830 20.833 C 158.814 20.879,158.800 21.179,158.798 21.500 C 158.797 21.821,158.750 22.158,158.694 22.250 C 158.639 22.342,158.572 22.567,158.546 22.750 C 158.519 22.933,158.458 23.308,158.409 23.583 C 158.360 23.858,158.282 24.421,158.236 24.833 C 158.190 25.246,158.107 25.696,158.053 25.833 C 157.999 25.971,157.956 26.327,157.956 26.625 C 157.956 26.923,157.901 27.167,157.833 27.167 C 157.765 27.167,157.702 27.507,157.694 27.923 C 157.685 28.339,157.639 28.744,157.590 28.823 C 157.541 28.902,157.456 29.293,157.401 29.691 C 157.346 30.090,157.281 30.567,157.255 30.750 C 157.230 30.933,157.192 31.083,157.170 31.083 C 157.149 31.083,157.105 31.383,157.074 31.750 C 157.003 32.580,156.943 32.860,156.777 33.125 C 156.706 33.240,156.683 33.392,156.727 33.464 C 156.772 33.535,156.700 34.191,156.569 34.922 C 156.437 35.652,156.296 36.550,156.256 36.917 C 156.215 37.283,156.134 37.771,156.075 38.000 C 156.017 38.229,155.957 38.698,155.943 39.042 C 155.929 39.385,155.872 39.666,155.818 39.667 C 155.764 39.667,155.706 40.052,155.689 40.522 C 155.673 40.993,155.609 41.459,155.548 41.558 C 155.486 41.657,155.413 42.003,155.384 42.327 C 155.355 42.651,155.284 43.104,155.225 43.333 C 155.166 43.563,155.104 43.862,155.086 44.000 C 155.068 44.137,154.993 44.512,154.920 44.833 C 154.846 45.154,154.765 45.717,154.741 46.083 C 154.716 46.450,154.662 46.900,154.620 47.083 C 154.498 47.617,154.308 48.701,154.225 49.333 C 154.131 50.046,154.036 50.583,154.003 50.583 C 153.990 50.583,153.944 50.921,153.901 51.333 C 153.859 51.746,153.813 52.177,153.801 52.292 C 153.788 52.406,153.718 52.500,153.646 52.500 C 153.573 52.500,153.524 52.706,153.536 52.958 C 153.567 53.585,153.374 55.035,153.195 55.519 C 153.114 55.738,153.036 56.324,153.020 56.821 C 153.005 57.319,152.934 57.806,152.864 57.905 C 152.794 58.003,152.752 58.327,152.771 58.625 C 152.789 58.923,152.751 59.167,152.686 59.167 C 152.620 59.167,152.562 59.335,152.557 59.542 C 152.547 59.964,152.396 61.012,152.168 62.250 C 151.884 63.790,151.572 65.642,151.423 66.667 C 151.114 68.796,150.982 69.561,150.901 69.693 C 150.848 69.777,150.778 70.162,150.744 70.548 C 150.709 70.934,150.631 71.625,150.570 72.083 C 150.509 72.542,150.452 73.048,150.443 73.208 C 150.435 73.369,150.377 73.500,150.314 73.500 C 150.251 73.500,150.196 73.744,150.191 74.042 C 150.186 74.340,150.137 74.771,150.082 75.000 C 150.027 75.229,149.957 75.604,149.926 75.833 C 149.896 76.063,149.812 76.662,149.740 77.167 C 149.668 77.671,149.615 78.252,149.621 78.458 C 149.626 78.665,149.583 78.833,149.524 78.834 C 149.421 78.834,149.330 79.400,149.276 80.375 C 149.262 80.627,149.191 80.833,149.118 80.833 C 149.045 80.833,149.002 80.927,149.021 81.042 C 149.058 81.256,148.850 82.988,148.716 83.583 C 148.675 83.767,148.611 84.123,148.574 84.375 C 148.537 84.627,148.464 85.040,148.412 85.292 C 148.360 85.544,148.292 85.938,148.262 86.167 C 148.157 86.965,147.838 88.920,147.745 89.333 C 147.624 89.875,147.488 90.768,147.417 91.500 C 147.386 91.821,147.309 92.271,147.247 92.500 C 147.185 92.729,147.107 93.142,147.073 93.417 C 147.039 93.692,146.968 94.179,146.915 94.500 C 146.862 94.821,146.803 95.365,146.784 95.708 C 146.765 96.052,146.694 96.333,146.626 96.333 C 146.558 96.333,146.529 96.502,146.562 96.708 C 146.595 96.915,146.565 97.234,146.496 97.419 C 146.428 97.604,146.325 98.091,146.269 98.503 C 146.212 98.914,146.124 99.438,146.073 99.667 C 146.021 99.896,145.965 100.346,145.948 100.667 C 145.931 100.987,145.859 101.293,145.788 101.346 C 145.717 101.398,145.654 101.736,145.647 102.096 C 145.641 102.456,145.520 103.313,145.379 104.000 C 145.238 104.688,145.096 105.523,145.063 105.857 C 144.986 106.641,144.911 107.021,144.767 107.350 C 144.703 107.497,144.668 107.684,144.691 107.767 C 144.713 107.849,144.666 108.442,144.587 109.083 C 144.507 109.725,144.458 110.344,144.478 110.458 C 144.498 110.573,144.448 110.667,144.368 110.667 C 144.287 110.667,144.210 110.910,144.196 111.208 C 144.183 111.506,144.126 111.938,144.069 112.167 C 144.013 112.396,143.950 112.733,143.930 112.917 C 143.910 113.100,143.830 113.550,143.752 113.917 C 143.674 114.283,143.612 114.808,143.614 115.083 C 143.616 115.358,143.567 115.658,143.505 115.750 C 143.401 115.904,143.311 116.548,143.268 117.458 C 143.258 117.665,143.198 117.833,143.135 117.833 C 143.072 117.833,143.025 117.965,143.030 118.125 C 143.035 118.285,142.991 118.717,142.932 119.083 C 142.873 119.450,142.794 119.975,142.758 120.250 C 142.721 120.525,142.639 121.087,142.574 121.500 C 142.510 121.912,142.440 122.438,142.417 122.667 C 142.395 122.896,142.361 123.083,142.342 123.083 C 142.324 123.083,142.276 123.271,142.237 123.500 C 142.197 123.729,142.125 124.142,142.077 124.417 C 142.028 124.692,141.958 125.179,141.920 125.500 C 141.882 125.821,141.787 126.308,141.707 126.583 C 141.369 127.759,139.917 127.660,157.584 127.665 C 168.308 127.668,173.513 127.614,173.584 127.498 C 173.674 127.353,173.765 126.680,173.880 125.292 C 173.894 125.131,173.972 125.000,174.054 125.000 C 174.135 125.000,174.164 124.900,174.117 124.779 C 174.071 124.657,174.106 124.188,174.196 123.737 C 174.286 123.286,174.375 122.654,174.394 122.333 C 174.412 122.013,174.479 121.668,174.541 121.567 C 174.604 121.466,174.695 121.053,174.743 120.650 C 174.892 119.407,175.009 118.602,175.103 118.167 C 175.152 117.938,175.213 117.563,175.237 117.333 C 175.262 117.104,175.328 116.692,175.384 116.417 C 175.441 116.142,175.533 115.504,175.590 115.000 C 175.646 114.496,175.769 113.746,175.864 113.333 C 175.959 112.921,176.066 112.268,176.102 111.884 C 176.139 111.499,176.244 110.986,176.335 110.745 C 176.427 110.503,176.469 110.251,176.428 110.185 C 176.387 110.119,176.433 109.732,176.529 109.324 C 176.774 108.290,177.034 106.468,177.069 105.542 C 177.077 105.335,177.144 105.167,177.218 105.167 C 177.292 105.167,177.314 105.103,177.266 105.026 C 177.218 104.949,177.246 104.630,177.327 104.318 C 177.408 104.005,177.517 103.412,177.569 103.000 C 177.649 102.361,177.817 101.272,178.074 99.721 C 178.107 99.522,178.190 99.110,178.258 98.805 C 178.326 98.500,178.405 97.950,178.434 97.583 C 178.464 97.217,178.521 96.729,178.563 96.500 C 178.844 94.935,179.032 93.696,179.036 93.375 C 179.039 93.169,179.092 93.000,179.154 93.000 C 179.216 93.000,179.270 92.831,179.275 92.625 C 179.279 92.419,179.337 91.950,179.404 91.583 C 179.555 90.754,179.600 90.462,179.742 89.417 C 179.804 88.958,179.918 88.358,179.995 88.083 C 180.073 87.808,180.135 87.471,180.133 87.333 C 180.125 86.902,180.350 85.445,180.531 84.750 C 180.627 84.383,180.734 83.746,180.768 83.333 C 180.871 82.124,180.897 82.000,181.054 82.000 C 181.135 82.000,181.159 81.886,181.105 81.747 C 181.052 81.609,181.125 80.840,181.267 80.039 C 181.410 79.238,181.557 78.358,181.595 78.083 C 181.633 77.808,181.707 77.396,181.758 77.167 C 181.810 76.938,181.876 76.563,181.907 76.333 C 181.937 76.104,182.019 75.504,182.089 75.000 C 182.158 74.496,182.209 73.952,182.201 73.792 C 182.194 73.631,182.245 73.500,182.316 73.500 C 182.387 73.500,182.448 73.294,182.453 73.042 C 182.457 72.790,182.513 72.358,182.576 72.083 C 182.640 71.808,182.694 71.471,182.698 71.333 C 182.701 71.196,182.773 70.753,182.858 70.350 C 182.943 69.946,183.051 69.271,183.099 68.850 C 183.146 68.428,183.336 67.258,183.520 66.250 C 183.705 65.242,183.882 64.192,183.914 63.917 C 183.947 63.642,184.011 63.192,184.058 62.917 C 184.105 62.642,184.233 61.817,184.341 61.083 C 184.450 60.350,184.551 59.675,184.566 59.583 C 184.581 59.492,184.637 59.342,184.691 59.250 C 184.745 59.158,184.801 58.858,184.815 58.583 C 184.847 57.979,184.944 57.250,184.993 57.250 C 185.012 57.250,185.061 56.913,185.102 56.500 C 185.173 55.768,185.407 54.278,185.564 53.557 C 185.607 53.359,185.691 52.834,185.752 52.390 C 185.874 51.501,185.940 51.116,186.070 50.519 C 186.117 50.300,186.177 49.793,186.203 49.394 C 186.229 48.994,186.290 48.667,186.339 48.667 C 186.431 48.667,186.439 48.613,186.529 47.307 C 186.558 46.880,186.627 46.559,186.683 46.593 C 186.738 46.627,186.794 46.452,186.807 46.203 C 186.820 45.954,186.869 45.525,186.915 45.250 C 187.055 44.412,187.149 43.781,187.240 43.083 C 187.451 41.451,187.674 40.108,187.778 39.833 C 187.887 39.546,187.959 39.105,188.098 37.875 C 188.194 37.015,188.276 36.499,188.340 36.333 C 188.358 36.287,188.364 36.195,188.354 36.128 C 188.344 36.061,188.424 35.611,188.533 35.128 C 188.642 34.645,188.715 34.189,188.695 34.114 C 188.676 34.040,188.745 33.665,188.850 33.281 C 188.955 32.897,189.071 32.173,189.108 31.671 C 189.144 31.169,189.256 30.457,189.356 30.088 C 189.456 29.719,189.561 29.026,189.588 28.549 C 189.616 28.071,189.682 27.610,189.735 27.524 C 189.845 27.346,190.044 26.065,190.030 25.625 C 190.025 25.465,190.080 25.333,190.153 25.333 C 190.226 25.333,190.287 25.127,190.290 24.875 C 190.295 24.264,190.494 22.644,190.582 22.503 C 190.620 22.441,190.695 21.984,190.749 21.487 C 190.804 20.990,190.894 20.433,190.951 20.250 C 191.007 20.067,191.075 19.692,191.102 19.417 C 191.152 18.896,191.217 18.482,191.432 17.292 C 191.503 16.902,191.568 16.508,191.577 16.417 C 191.586 16.325,191.660 15.912,191.741 15.500 C 191.822 15.088,191.899 14.525,191.911 14.250 C 191.924 13.975,191.980 13.637,192.037 13.500 C 192.094 13.362,192.186 12.875,192.243 12.417 C 192.362 11.443,192.437 10.967,192.594 10.167 C 192.657 9.846,192.726 9.311,192.749 8.978 C 192.771 8.645,192.835 8.299,192.890 8.210 C 192.945 8.121,193.034 7.606,193.087 7.065 C 193.141 6.525,193.293 5.645,193.426 5.110 C 193.559 4.574,193.625 4.068,193.574 3.985 C 193.417 3.731,161.502 3.787,161.490 4.042 M349.667 37.657 C 349.667 37.835,349.743 38.027,349.836 38.085 C 349.929 38.143,349.975 38.241,349.938 38.303 C 349.880 38.399,349.957 38.941,350.226 40.333 C 350.253 40.471,350.321 40.733,350.378 40.917 C 350.473 41.224,350.661 42.236,350.735 42.836 C 350.752 42.975,350.813 43.166,350.871 43.260 C 350.929 43.354,351.017 43.728,351.066 44.090 C 351.115 44.453,351.224 45.027,351.308 45.367 C 351.392 45.706,351.420 46.025,351.369 46.075 C 351.319 46.125,351.370 46.167,351.482 46.167 C 351.594 46.167,351.649 46.227,351.604 46.301 C 351.558 46.374,351.597 46.768,351.691 47.176 C 351.784 47.583,351.884 48.142,351.913 48.417 C 351.941 48.692,352.090 49.367,352.245 49.917 C 352.399 50.467,352.559 51.217,352.601 51.583 C 352.692 52.384,352.749 52.669,352.887 53.000 C 352.983 53.232,353.340 55.155,353.374 55.625 C 353.382 55.740,353.456 55.833,353.538 55.833 C 353.619 55.833,353.651 55.891,353.607 55.961 C 353.564 56.031,353.601 56.463,353.690 56.919 C 353.779 57.376,353.871 57.903,353.895 58.090 C 353.918 58.278,353.995 58.524,354.065 58.637 C 354.135 58.751,354.222 59.160,354.258 59.547 C 354.293 59.934,354.399 60.508,354.492 60.822 C 354.585 61.137,354.625 61.430,354.582 61.474 C 354.538 61.517,354.572 61.636,354.657 61.739 C 354.813 61.926,355.048 63.304,355.027 63.909 C 355.021 64.088,355.079 64.313,355.156 64.409 C 355.296 64.582,355.748 66.642,355.908 67.833 C 355.926 67.971,355.990 68.233,356.049 68.417 C 356.109 68.600,356.191 69.029,356.232 69.369 C 356.273 69.710,356.348 70.056,356.398 70.137 C 356.449 70.219,356.528 70.577,356.575 70.934 C 356.621 71.291,356.731 71.827,356.818 72.125 C 356.905 72.423,356.935 72.667,356.885 72.667 C 356.834 72.667,356.863 72.760,356.948 72.875 C 357.034 72.990,357.095 73.196,357.084 73.333 C 357.073 73.471,357.167 73.947,357.293 74.391 C 357.419 74.836,357.485 75.237,357.439 75.284 C 357.392 75.330,357.424 75.551,357.510 75.776 C 357.668 76.191,357.802 76.836,357.924 77.771 C 357.962 78.058,358.076 78.508,358.178 78.771 C 358.411 79.371,358.523 79.933,358.547 80.615 C 358.557 80.907,358.626 81.108,358.700 81.063 C 358.774 81.017,358.807 81.153,358.773 81.365 C 358.740 81.577,358.814 82.087,358.938 82.500 C 359.062 82.912,359.164 83.362,359.165 83.500 C 359.166 83.721,357.596 83.745,345.849 83.706 L 332.531 83.663 332.924 82.579 C 333.141 81.982,333.323 81.459,333.330 81.416 C 333.338 81.373,333.491 80.993,333.672 80.572 C 333.852 80.150,334.000 79.712,334.000 79.597 C 334.000 79.483,334.052 79.337,334.116 79.273 C 334.180 79.209,334.255 79.047,334.283 78.912 C 334.389 78.396,334.451 78.228,334.797 77.500 C 334.993 77.087,335.187 76.563,335.227 76.333 C 335.343 75.665,335.855 74.500,336.032 74.500 C 336.121 74.500,336.162 74.406,336.123 74.292 C 336.084 74.177,336.187 73.765,336.353 73.375 C 336.519 72.985,336.624 72.667,336.586 72.667 C 336.548 72.667,336.627 72.404,336.761 72.083 C 336.895 71.762,336.969 71.500,336.926 71.500 C 336.883 71.500,337.036 71.125,337.266 70.666 C 337.497 70.207,337.800 69.438,337.940 68.957 C 338.080 68.477,338.303 67.915,338.435 67.708 C 338.567 67.502,338.639 67.333,338.596 67.333 C 338.552 67.333,338.623 67.080,338.752 66.771 C 338.881 66.462,338.940 66.162,338.882 66.105 C 338.825 66.047,338.865 66.000,338.972 66.000 C 339.079 66.000,339.167 65.813,339.167 65.583 C 339.167 65.354,339.254 65.167,339.361 65.167 C 339.468 65.167,339.505 65.116,339.444 65.055 C 339.382 64.994,339.453 64.759,339.600 64.534 C 339.789 64.246,339.802 64.166,339.642 64.261 C 339.467 64.367,339.458 64.344,339.602 64.157 C 339.753 63.960,340.373 62.469,340.429 62.167 C 340.438 62.121,340.545 61.858,340.667 61.583 C 340.789 61.308,340.904 61.027,340.924 60.958 C 340.943 60.890,340.977 60.777,340.999 60.708 C 341.021 60.640,341.031 60.527,341.020 60.458 C 341.009 60.390,341.079 60.333,341.177 60.333 C 341.274 60.333,341.315 60.272,341.268 60.196 C 341.222 60.121,341.292 59.850,341.425 59.594 C 341.558 59.338,341.667 58.987,341.667 58.814 C 341.667 58.641,341.742 58.500,341.833 58.500 C 341.925 58.500,342.000 58.309,342.000 58.075 C 342.000 57.841,342.127 57.410,342.282 57.117 C 342.438 56.823,342.588 56.448,342.616 56.283 C 342.644 56.117,342.780 55.765,342.917 55.499 C 343.054 55.234,343.167 54.825,343.167 54.592 C 343.167 54.358,343.230 54.167,343.307 54.167 C 343.384 54.167,343.539 53.848,343.651 53.458 C 343.763 53.069,344.000 52.432,344.177 52.043 C 344.355 51.655,344.500 51.240,344.500 51.122 C 344.500 51.004,344.617 50.741,344.759 50.537 C 344.902 50.333,344.980 50.167,344.932 50.167 C 344.884 50.167,344.990 49.829,345.167 49.417 C 345.343 49.004,345.451 48.667,345.405 48.667 C 345.359 48.667,345.414 48.498,345.528 48.292 C 345.641 48.085,345.753 47.842,345.775 47.750 C 345.841 47.487,346.358 46.013,346.779 44.892 C 346.991 44.329,347.187 43.729,347.215 43.559 C 347.243 43.389,347.359 43.081,347.472 42.875 C 347.586 42.669,347.637 42.500,347.585 42.500 C 347.534 42.500,347.610 42.320,347.754 42.100 C 347.898 41.881,348.054 41.489,348.101 41.229 C 348.148 40.969,348.276 40.700,348.385 40.631 C 348.494 40.562,348.531 40.504,348.467 40.503 C 348.403 40.501,348.467 40.221,348.610 39.879 C 348.752 39.538,348.903 39.069,348.944 38.838 C 348.986 38.606,349.123 38.209,349.248 37.956 C 349.379 37.692,349.400 37.542,349.296 37.606 C 349.188 37.673,349.163 37.641,349.234 37.526 C 349.420 37.225,349.667 37.300,349.667 37.657 " stroke="none" fill="#0454a3" fill-rule="evenodd"></path><path id="path2" d="M217.906 16.542 L 217.417 17.083 217.958 16.594 C 218.463 16.138,218.577 16.000,218.448 16.000 C 218.419 16.000,218.175 16.244,217.906 16.542 M274.078 114.375 L 273.083 115.417 274.125 114.422 C 274.698 113.875,275.167 113.406,275.167 113.380 C 275.167 113.257,275.002 113.407,274.078 114.375 M103.028 115.658 C 102.930 115.938,102.886 116.167,102.929 116.167 C 103.042 116.167,103.356 115.301,103.274 115.218 C 103.236 115.181,103.125 115.378,103.028 115.658 M299.667 127.667 L 282.750 127.752 299.708 127.793 C 310.930 127.820,316.667 127.777,316.667 127.667 C 316.667 127.575,316.648 127.518,316.625 127.540 C 316.602 127.563,308.971 127.620,299.667 127.667 M149.554 127.792 C 154.030 127.816,161.305 127.816,165.721 127.792 C 170.137 127.767,166.475 127.747,157.583 127.747 C 148.692 127.747,145.079 127.767,149.554 127.792 M375.638 127.792 C 379.792 127.816,386.542 127.816,390.638 127.792 C 394.733 127.767,391.333 127.746,383.083 127.746 C 374.833 127.747,371.483 127.767,375.638 127.792 " stroke="none" fill="#6b9ec2" fill-rule="evenodd"></path><path id="path3" d="M120.667 3.789 C 136.644 3.904,148.667 3.905,148.667 3.792 C 148.667 3.723,140.998 3.684,131.625 3.706 C 122.252 3.728,117.321 3.765,120.667 3.789 M167.167 3.789 C 182.246 3.904,193.667 3.905,193.667 3.792 C 193.667 3.723,186.410 3.684,177.542 3.706 C 168.673 3.728,164.004 3.765,167.167 3.789 M352.708 3.792 C 356.260 3.817,362.073 3.817,365.625 3.792 C 369.177 3.767,366.271 3.746,359.167 3.746 C 352.063 3.746,349.156 3.767,352.708 3.792 M231.875 7.172 C 231.317 7.396,231.421 7.510,232.000 7.308 C 232.275 7.212,232.500 7.104,232.500 7.067 C 232.500 6.968,232.297 7.002,231.875 7.172 M226.623 9.896 C 225.823 10.388,225.599 10.620,226.250 10.284 C 226.772 10.014,227.477 9.511,227.333 9.511 C 227.287 9.510,226.968 9.684,226.623 9.896 M331.460 11.875 C 331.220 12.242,330.877 13.164,331.042 13.000 C 331.182 12.860,331.845 11.500,331.773 11.500 C 331.735 11.500,331.595 11.669,331.460 11.875 M219.167 15.380 C 219.029 15.492,218.807 15.733,218.673 15.917 C 218.539 16.100,218.670 16.030,218.965 15.760 C 219.445 15.322,219.584 15.156,219.458 15.172 C 219.435 15.175,219.304 15.269,219.167 15.380 M216.611 17.875 C 216.443 18.051,216.337 18.226,216.376 18.265 C 216.415 18.304,216.583 18.184,216.750 18.000 C 217.141 17.568,217.014 17.453,216.611 17.875 M326.260 23.936 C 326.106 24.549,326.228 24.585,326.451 23.994 C 326.554 23.722,326.577 23.500,326.504 23.500 C 326.430 23.500,326.320 23.696,326.260 23.936 M257.958 27.451 C 258.165 27.491,258.502 27.491,258.708 27.451 C 258.915 27.411,258.746 27.379,258.333 27.379 C 257.921 27.379,257.752 27.411,257.958 27.451 M138.028 29.658 C 137.930 29.938,137.886 30.167,137.929 30.167 C 138.042 30.167,138.356 29.301,138.274 29.218 C 138.236 29.181,138.125 29.378,138.028 29.658 M243.249 31.962 C 242.823 32.330,242.084 33.167,242.186 33.167 C 242.229 33.167,242.595 32.829,243.000 32.417 C 243.741 31.662,243.869 31.428,243.249 31.962 M320.325 38.106 C 320.233 38.348,320.188 38.577,320.226 38.615 C 320.264 38.653,320.375 38.455,320.472 38.175 C 320.689 37.553,320.558 37.493,320.325 38.106 M206.845 42.847 C 206.851 43.252,206.919 43.733,206.996 43.917 C 207.080 44.118,207.099 43.854,207.044 43.250 C 206.936 42.046,206.829 41.830,206.845 42.847 M241.999 42.958 C 242.218 43.256,242.422 43.500,242.454 43.500 C 242.580 43.500,242.167 42.875,241.894 42.653 C 241.714 42.507,241.754 42.623,241.999 42.958 M347.262 43.429 C 347.201 43.673,347.183 43.905,347.222 43.944 C 347.261 43.983,347.343 43.816,347.405 43.571 C 347.466 43.327,347.484 43.095,347.445 43.056 C 347.406 43.017,347.323 43.184,347.262 43.429 M243.250 44.333 C 243.608 44.700,243.938 45.000,243.984 45.000 C 244.030 45.000,243.775 44.700,243.417 44.333 C 243.059 43.967,242.728 43.667,242.682 43.667 C 242.637 43.667,242.892 43.967,243.250 44.333 M98.852 46.185 C 98.749 46.480,98.694 46.750,98.730 46.786 C 98.766 46.821,98.879 46.609,98.981 46.315 C 99.084 46.020,99.139 45.750,99.103 45.714 C 99.068 45.679,98.955 45.891,98.852 46.185 M247.250 47.420 C 247.433 47.569,247.733 47.765,247.917 47.855 L 248.250 48.018 247.917 47.747 C 247.733 47.598,247.433 47.402,247.250 47.312 L 246.917 47.148 247.250 47.420 M314.324 52.441 C 314.232 52.683,314.110 52.957,314.053 53.050 C 313.995 53.142,314.028 53.169,314.125 53.109 C 314.308 52.996,314.708 52.000,314.571 52.000 C 314.527 52.000,314.416 52.198,314.324 52.441 M209.852 55.165 C 210.058 55.530,210.253 55.802,210.286 55.769 C 210.358 55.698,209.669 54.500,209.556 54.500 C 209.514 54.500,209.647 54.799,209.852 55.165 M264.181 56.559 C 264.404 56.748,265.833 57.518,265.833 57.448 C 265.833 57.346,264.406 56.500,264.234 56.500 C 264.167 56.500,264.142 56.527,264.181 56.559 M266.500 57.890 C 266.500 58.002,267.698 58.691,267.769 58.620 C 267.802 58.586,267.530 58.391,267.165 58.186 C 266.799 57.980,266.500 57.847,266.500 57.890 M215.755 63.148 C 216.285 63.791,217.000 64.484,217.000 64.355 C 217.000 64.290,216.646 63.902,216.213 63.493 C 215.780 63.084,215.574 62.929,215.755 63.148 M277.286 66.670 C 277.581 66.980,277.851 67.199,277.885 67.158 C 277.920 67.117,277.679 66.864,277.349 66.595 L 276.750 66.108 277.286 66.670 M279.519 69.375 C 280.206 70.321,280.495 70.609,280.187 70.042 C 280.100 69.881,279.758 69.450,279.426 69.083 C 278.849 68.444,278.853 68.457,279.519 69.375 M225.167 70.675 C 225.745 71.067,226.074 71.181,225.667 70.848 C 225.438 70.661,225.175 70.507,225.083 70.506 C 224.992 70.506,225.029 70.581,225.167 70.675 M119.702 74.609 C 119.600 74.944,119.582 75.150,119.663 75.067 C 119.826 74.900,120.079 74.000,119.963 74.000 C 119.922 74.000,119.805 74.274,119.702 74.609 M242.000 79.818 C 242.229 80.006,242.492 80.160,242.583 80.160 C 242.762 80.162,242.460 79.931,241.917 79.650 C 241.695 79.535,241.723 79.592,242.000 79.818 M85.825 81.273 C 85.733 81.515,85.688 81.744,85.726 81.782 C 85.764 81.819,85.875 81.622,85.972 81.342 C 86.189 80.720,86.058 80.659,85.825 81.273 M248.083 84.167 C 248.628 84.717,249.110 85.167,249.156 85.167 C 249.202 85.167,248.794 84.717,248.250 84.167 C 247.706 83.617,247.223 83.167,247.177 83.167 C 247.131 83.167,247.539 83.617,248.083 84.167 M248.667 98.289 C 248.151 98.820,248.061 98.967,248.379 98.759 C 248.757 98.512,249.658 97.478,249.470 97.508 C 249.441 97.513,249.079 97.864,248.667 98.289 M245.708 100.519 C 245.140 100.883,244.956 101.127,245.458 100.851 C 245.841 100.641,246.440 100.178,246.333 100.175 C 246.287 100.173,246.006 100.328,245.708 100.519 M280.546 105.708 C 280.247 106.095,280.146 106.333,280.282 106.332 C 280.356 106.331,280.503 106.144,280.609 105.915 C 280.820 105.461,280.797 105.384,280.546 105.708 M275.073 113.208 L 274.583 113.750 275.125 113.260 C 275.630 112.804,275.743 112.667,275.615 112.667 C 275.586 112.667,275.342 112.910,275.073 113.208 M271.000 117.023 L 270.250 117.702 271.000 117.155 C 271.991 116.432,272.101 116.332,271.908 116.338 C 271.821 116.341,271.412 116.649,271.000 117.023 M266.458 120.262 C 265.835 120.600,265.873 120.741,266.500 120.417 C 266.775 120.274,267.000 120.123,267.000 120.079 C 267.000 119.972,266.982 119.978,266.458 120.262 M227.042 129.448 C 227.202 129.490,227.465 129.490,227.625 129.448 C 227.785 129.406,227.654 129.372,227.333 129.372 C 227.012 129.372,226.881 129.406,227.042 129.448 M231.792 129.451 C 231.998 129.491,232.335 129.491,232.542 129.451 C 232.748 129.411,232.579 129.379,232.167 129.379 C 231.754 129.379,231.585 129.411,231.792 129.451 " stroke="none" fill="#4a7ea6" fill-rule="evenodd"></path><path id="path4" d="M256.875 1.615 C 257.035 1.657,257.298 1.657,257.458 1.615 C 257.619 1.573,257.487 1.539,257.167 1.539 C 256.846 1.539,256.715 1.573,256.875 1.615 M35.776 20.092 C 35.827 20.225,35.937 20.333,36.020 20.333 C 36.971 20.333,49.362 29.153,52.176 31.833 C 52.320 31.971,53.034 32.608,53.761 33.248 C 56.139 35.344,60.216 39.503,62.420 42.083 C 62.968 42.725,63.454 43.288,63.500 43.333 C 63.705 43.537,66.312 46.824,66.804 47.500 C 68.340 49.607,70.563 52.827,71.082 53.698 C 71.175 53.852,71.512 54.415,71.832 54.948 C 72.152 55.481,72.472 56.029,72.543 56.167 C 72.613 56.304,72.895 56.792,73.169 57.250 C 74.313 59.164,75.892 62.261,77.078 64.917 C 77.774 66.475,78.448 67.975,78.577 68.250 C 78.706 68.525,78.976 69.218,79.177 69.789 C 79.378 70.360,79.657 70.923,79.797 71.039 C 80.011 71.216,80.008 71.165,79.776 70.717 C 79.624 70.423,79.500 70.079,79.500 69.951 C 79.500 69.823,79.395 69.500,79.266 69.234 C 79.138 68.968,78.718 67.962,78.334 67.000 C 77.063 63.814,74.344 58.517,72.088 54.833 C 70.655 52.494,67.351 47.619,66.778 47.000 C 66.651 46.862,66.183 46.262,65.738 45.667 C 65.294 45.071,64.889 44.546,64.840 44.500 C 64.755 44.422,64.401 44.000,63.114 42.441 C 60.770 39.604,55.845 34.607,53.097 32.278 C 52.646 31.896,52.156 31.471,52.009 31.333 C 51.861 31.196,51.330 30.747,50.829 30.336 C 50.327 29.924,49.879 29.549,49.833 29.502 C 49.615 29.278,47.977 27.984,47.083 27.330 C 45.983 26.525,45.977 26.520,45.226 25.919 C 44.938 25.689,44.653 25.500,44.594 25.500 C 44.535 25.500,44.395 25.424,44.285 25.330 C 42.276 23.639,35.548 19.496,35.776 20.092 M285.214 87.750 C 285.216 88.208,285.248 88.376,285.286 88.123 C 285.325 87.869,285.324 87.494,285.284 87.289 C 285.244 87.084,285.213 87.292,285.214 87.750 M251.712 91.500 C 251.712 91.912,251.745 92.081,251.784 91.875 C 251.824 91.669,251.824 91.331,251.784 91.125 C 251.745 90.919,251.712 91.087,251.712 91.500 M228.181 103.561 C 228.219 103.595,228.550 103.668,228.917 103.724 C 229.381 103.795,229.482 103.780,229.250 103.674 C 228.930 103.529,228.037 103.435,228.181 103.561 M333.721 109.125 C 339.389 109.149,348.614 109.149,354.221 109.125 C 359.829 109.101,355.192 109.081,343.917 109.081 C 332.642 109.081,328.054 109.101,333.721 109.125 M228.955 129.454 C 229.250 129.490,229.775 129.491,230.121 129.455 C 230.467 129.419,230.225 129.389,229.583 129.388 C 228.942 129.387,228.659 129.417,228.955 129.454 " stroke="none" fill="#265166" fill-rule="evenodd"></path></g></svg>