<svg xmlns="http://www.w3.org/2000/svg" width="363.667" height="269.574" viewBox="0 0 363.667 269.574">
  <g id="Group_34" data-name="Group 34" transform="translate(0 0.098)">
    <path id="Path_182" data-name="Path 182" d="M755.911,258.018l2.862-1.766c.272-.172.54-.356.816-.529a27.331,27.331,0,0,1-22.669-25.665,27.047,27.047,0,0,1,2.36-12.449,27.377,27.377,0,0,1,17.548-15.138l-.142,11.262,6.186-12.258a.246.246,0,0,1,.077,0A27.327,27.327,0,0,1,791.52,227.5c.023.521,0,1.034,0,1.532a32.673,32.673,0,0,0,5.4-7.971c2.62-5.842,2.681-12.457,2.463-20.5-.414-15.935-1.1-31.989-2-48a27.312,27.312,0,0,1-24.267-25.852c-.038-.839-.027-1.662,0-2.482a4.1,4.1,0,0,1,.031-.613c.054-.793.126-1.578.249-2.352a2.234,2.234,0,0,1,.069-.383q.168-.984.4-1.946c.061-.237.119-.479.184-.716a20.7,20.7,0,0,1,.647-2.061c.081-.226.176-.444.26-.667.2-.5.406-.988.628-1.475.119-.257.234-.509.36-.766.031-.065.058-.13.092-.2h0A27.308,27.308,0,0,1,808.129,99.2l-.184,14.656,6.129-12.1A27.159,27.159,0,0,1,827.1,131.2h.031c-.042.2-.1.383-.149.575-.084.36-.176.716-.276,1.073-.13.456-.276.9-.425,1.352-.115.333-.226.674-.352,1-.184.483-.383.954-.605,1.425-.123.276-.234.555-.383.827q-.525,1.057-1.149,2.068c-.142.234-.3.456-.452.69-.291.452-.586.9-.9,1.337-.2.268-.406.525-.613.789-.3.383-.605.766-.923,1.115-.226.257-.456.509-.693.766-.333.352-.678.693-1.034,1.03-.234.226-.471.452-.716.667-.4.356-.824.7-1.249,1.03-.214.169-.421.345-.644.506q-.969.72-2,1.352c-.13.077-.268.142-.383.218-.575.341-1.149.659-1.766.958-.257.126-.525.237-.789.356-.494.222-.992.437-1.5.632-.295.111-.6.215-.9.318-.5.172-1.011.329-1.532.471-.306.084-.609.169-.919.241-.559.134-1.13.245-1.7.341a.2.2,0,0,0-.111.023q.567,10.128,1.007,20.267a27.312,27.312,0,0,1,37.922-11.856l-4.83,13.235,9.936-9.542a27.25,27.25,0,0,1,8.81,18.869,26.745,26.745,0,0,1-.693,7.527,27.316,27.316,0,0,1-50.245,7.443c0,.686.05,1.375.069,2.061.18,7.094.406,15.92-3.13,23.8-2.394,5.344-6.251,9.684-10.063,13.572-2.478,2.532-5.049,4.98-7.684,7.351a27.327,27.327,0,0,1-9.867,8.205q-6.493,5-13.445,9.37l-2.815,1.816c-2.6,1.613-5.267,3.267-7.883,4.98.46-.046.916-.1,1.383-.115a27.339,27.339,0,0,1,26.906,17.785l-17.077,13.9,18.77-4.355a27.339,27.339,0,0,1-39.179,24.611c.421.529.847,1.053,1.268,1.578.839,1.046,1.674,2.084,2.49,3.114,11.109,14.07,14.2,27.431,8.7,37.616l-6.688-3.616c5.363-9.913-2.681-22.6-7.979-29.288-.8-1.011-1.62-2.03-2.448-3.064-7.1-8.81-15.142-18.816-14.939-31.077C723.531,278.086,741.493,266.951,755.911,258.018Z" transform="translate(-494.162 -98.18)" fill="rgba(0,67,113,0.1)"/>
    <ellipse id="Ellipse_40" data-name="Ellipse 40" cx="174.481" cy="8.044" rx="174.481" ry="8.044" transform="translate(0 253.388)" fill="rgba(0,28,51,0.73)"/>
    <path id="Path_183" data-name="Path 183" d="M940.808,698.152c1.149-2.111-.153-4.7-1.639-6.581s-3.3-3.831-3.26-6.24c.054-3.448,3.712-5.482,6.638-7.309a32.481,32.481,0,0,0,5.956-4.792,8.732,8.732,0,0,0,1.835-2.452,10.008,10.008,0,0,0,.548-4.359q-.192-7.378-.728-14.74" transform="translate(-625.366 -439.72)" fill="none" stroke="#3f3d56" stroke-miterlimit="10" stroke-width="4"/>
    <path id="Path_184" data-name="Path 184" d="M970.3,642.74a5.386,5.386,0,0,0-2.681-4.405l-1.2,2.383.035-2.88a5.375,5.375,0,1,0,3.83,4.9Z" transform="translate(-639.953 -431.04)" fill="#e4daa0"/>
    <path id="Path_185" data-name="Path 185" d="M946.273,733.409a5.363,5.363,0,1,1,.257-4.328l-3.356,2.731,3.693-.858A5.362,5.362,0,0,1,946.273,733.409Z" transform="translate(-625.511 -485.319)" fill="#e4daa0"/>
    <path id="Path_186" data-name="Path 186" d="M946.6,701.4a5.363,5.363,0,0,1-5.616-5.121,5.287,5.287,0,0,1,.464-2.448,5.386,5.386,0,0,1,3.448-2.98l-.027,2.218,1.218-2.413h0a5.378,5.378,0,0,1,.5,10.745Z" transform="translate(-628.497 -463.759)" fill="#e4daa0"/>
    <path id="Path_187" data-name="Path 187" d="M980.676,678.715a5.369,5.369,0,1,1,2.375-10.044l-.95,2.6,1.954-1.877a5.363,5.363,0,0,1,1.739,3.712,5.24,5.24,0,0,1-.138,1.479A5.363,5.363,0,0,1,980.676,678.715Z" transform="translate(-649.517 -449.778)" fill="#e4daa0"/>
    <path id="Path_188" data-name="Path 188" d="M969.676,648.882c-1.241.138-2.448.525-3.693.6a4.018,4.018,0,0,1-3.4-1.191,17.013,17.013,0,0,1-1-1.747,3.832,3.832,0,0,0-1.352-1.276,5.363,5.363,0,1,0,10.051,3.57C970.079,648.848,969.876,648.863,969.676,648.882Z" transform="translate(-640.05 -435.765)" opacity="0.1"/>
    <path id="Path_189" data-name="Path 189" d="M980.655,683.661A5.363,5.363,0,0,1,975.541,676a3.984,3.984,0,0,1,1.08,1.084,17.319,17.319,0,0,0,1.065,1.777,4.384,4.384,0,0,0,3.566,1.245c1.3-.061,2.547-.425,3.831-.544.176,0,.36-.031.54-.034A5.363,5.363,0,0,1,980.655,683.661Z" transform="translate(-649.497 -454.724)" opacity="0.1"/>
    <path id="Path_190" data-name="Path 190" d="M946.6,706.519a5.363,5.363,0,0,1-5.616-5.122,5.287,5.287,0,0,1,.464-2.448,4.413,4.413,0,0,1,1.149,1.092c.417.59.678,1.268,1.149,1.812a4.965,4.965,0,0,0,3.808,1.333c1.375-.035,2.612-.356,3.938-.456a5.386,5.386,0,0,1-4.892,3.788Z" transform="translate(-628.497 -468.883)" opacity="0.1"/>
    <path id="Path_191" data-name="Path 191" d="M946.04,738.905a5.373,5.373,0,1,1-9.8-4.405,5.576,5.576,0,0,1,1.18,1.053,21.183,21.183,0,0,0,1.44,1.915,6.69,6.69,0,0,0,4.451,1.563A23.047,23.047,0,0,0,946.04,738.905Z" transform="translate(-625.277 -490.815)" opacity="0.1"/>
    <path id="Path_192" data-name="Path 192" d="M927.54,762.955s4.24-.13,5.52-1.042,6.512-2,6.845-.536,6.378,7.278,1.586,7.3-11.132-.766-12.407-1.532S927.54,762.955,927.54,762.955Z" transform="translate(-620.204 -506.955)" fill="#001c33"/>
    <path id="Path_193" data-name="Path 193" d="M941.575,771.839c-4.788.038-11.132-.766-12.407-1.532-.969-.59-1.36-2.716-1.486-3.7h-.142s.268,3.421,1.532,4.214,7.615,1.563,12.407,1.532c1.383,0,1.862-.506,1.835-1.233C943.134,771.555,942.605,771.831,941.575,771.839Z" transform="translate(-620.204 -510.625)" opacity="0.2"/>
    <path id="Path_194" data-name="Path 194" d="M279.992,559.682c-2.781-5.148.383-11.453,4-16.042s8.044-9.362,7.948-15.211c-.138-8.4-9.055-13.365-16.18-17.82A79.021,79.021,0,0,1,261.23,498.93a21.22,21.22,0,0,1-4.466-5.98c-1.471-3.287-1.433-7.021-1.337-10.622q.46-18,1.777-35.938" transform="translate(-205.522 -313.067)" fill="none" stroke="#3f3d56" stroke-miterlimit="10" stroke-width="4"/>
    <path id="Path_195" data-name="Path 195" d="M224.737,424.575a13.1,13.1,0,0,1,6.543-10.726l2.934,5.8-.088-7.025a13.108,13.108,0,1,1-9.389,11.959Z" transform="translate(-186.604 -291.907)" fill="#e4daa0"/>
    <path id="Path_196" data-name="Path 196" d="M283.448,645.521a13.1,13.1,0,0,0,24.742-5.363,12.932,12.932,0,0,0-.854-5.317,13.108,13.108,0,0,0-24.516.142l8.186,6.657-9.006-2.1A12.959,12.959,0,0,0,283.448,645.521Z" transform="translate(-221.941 -424.153)" fill="#e4daa0"/>
    <path id="Path_197" data-name="Path 197" d="M282.571,567.622a13.108,13.108,0,0,0,4.156-25.711l.069,5.4-2.95-5.872h-.034a13.109,13.109,0,0,0-1.222,26.189Z" transform="translate(-214.594 -371.697)" fill="#e4daa0"/>
    <path id="Path_198" data-name="Path 198" d="M199.466,512.351a13.108,13.108,0,1,0-5.792-24.516l2.3,6.347-4.746-4.585a13.047,13.047,0,0,0-4.252,9.048,12.783,12.783,0,0,0,.333,3.608A13.1,13.1,0,0,0,199.466,512.351Z" transform="translate(-163.305 -337.597)" fill="#e4daa0"/>
    <path id="Path_199" data-name="Path 199" d="M226.948,439.61c3.026.333,5.968,1.272,9,1.459s6.37-.536,8.289-2.9a40.866,40.866,0,0,0,2.425-4.267,9.3,9.3,0,0,1,3.3-3.107,13.108,13.108,0,1,1-24.516,8.7C225.959,439.522,226.457,439.557,226.948,439.61Z" transform="translate(-187.053 -303.449)" opacity="0.1"/>
    <path id="Path_200" data-name="Path 200" d="M200.053,524.443a13.116,13.116,0,0,0,12.468-18.693,9.7,9.7,0,0,0-2.635,2.635c-.935,1.41-1.5,3.038-2.6,4.332-2.042,2.4-5.527,3.183-8.692,3.042s-6.217-1.046-9.366-1.333c-.437-.038-.881-.069-1.322-.08A13.1,13.1,0,0,0,200.053,524.443Z" transform="translate(-163.892 -349.689)" opacity="0.1"/>
    <path id="Path_201" data-name="Path 201" d="M283.477,580.1a13.1,13.1,0,0,0,12.572-18.452,10.6,10.6,0,0,0-2.77,2.681c-1.019,1.436-1.655,3.091-2.846,4.417-2.21,2.463-5.926,3.333-9.278,3.252-3.244-.069-6.37-.866-9.6-1.115A13.116,13.116,0,0,0,283.477,580.1Z" transform="translate(-215.5 -384.176)" opacity="0.1"/>
    <path id="Path_202" data-name="Path 202" d="M285.78,659.04a13.1,13.1,0,0,0,24.741-5.363,12.931,12.931,0,0,0-.854-5.317,13.121,13.121,0,0,0-2.873,2.563c-1.245,1.532-2.069,3.241-3.509,4.658-2.681,2.628-7.006,3.716-10.856,3.831a56.234,56.234,0,0,1-6.65-.371Z" transform="translate(-224.273 -437.671)" opacity="0.1"/>
    <path id="Path_203" data-name="Path 203" d="M276.367,567.707,225.8,578.049l-1.149-.115-44.434-4.482V517.143l54.394-9.193,39.455,4.6.012.249,0,.123Z" transform="translate(-111.186 -313.438)" fill="#004371"/>
    <path id="Path_204" data-name="Path 204" d="M347.932,575.511l-50.563,10.343-1.149-.115V528.012l49.426-7.412Z" transform="translate(-182.752 -321.242)" opacity="0.1"/>
    <path id="Path_205" data-name="Path 205" d="M274.084,512.918l-.015.011-49.414,7.278-44.434-3.064,54.394-9.193,39.455,4.6.012.249Z" transform="translate(-111.186 -313.438)" opacity="0.05"/>
    <path id="Path_206" data-name="Path 206" d="M421.367,573.706,370.8,584.049l-1.149-.115-44.434-4.482V523.143l54.394-9.193,39.455,4.6.012.249,0,.123Z" transform="translate(-200.643 -317.14)" fill="#2d4d67"/>
    <path id="Path_207" data-name="Path 207" d="M492.932,581.511l-50.563,10.343-1.149-.115V534.012l49.426-7.412Z" transform="translate(-272.209 -324.944)" opacity="0.1"/>
    <path id="Path_208" data-name="Path 208" d="M419.084,518.918l-.015.011-49.414,7.278-44.434-3.064,54.394-9.193,39.455,4.6.012.249Z" transform="translate(-200.643 -317.14)" opacity="0.05"/>
    <path id="Path_209" data-name="Path 209" d="M330.367,429.707,279.8,440.049l-1.149-.115-44.434-4.482V379.143l54.394-9.193,39.455,4.6.012.249,0,.123Z" transform="translate(-144.501 -228.299)" fill="#2d4d67"/>
    <path id="Path_210" data-name="Path 210" d="M401.932,437.511l-50.563,10.342-1.149-.115V390.012l49.426-7.412Z" transform="translate(-216.067 -236.104)" opacity="0.1"/>
    <path id="Path_211" data-name="Path 211" d="M328.084,374.918l-.015.011-49.414,7.278-44.434-3.064,54.394-9.193,39.455,4.6.012.249Z" transform="translate(-144.501 -228.299)" opacity="0.05"/>
    <path id="Path_212" data-name="Path 212" d="M479.4,481.878l-26.389,5.4-.6-.061-23.19-2.34V455.49l28.388-4.8,20.593,2.4.008.13v.061Z" transform="translate(-264.805 -278.112)" fill="#2d4d67"/>
    <path id="Path_213" data-name="Path 213" d="M516.75,485.956l-26.389,5.4-.6-.061V461.169l25.8-3.869Z" transform="translate(-302.155 -282.19)" opacity="0.1"/>
    <path id="Path_214" data-name="Path 214" d="M478.209,453.283l-.008.008-25.791,3.8-23.19-1.6,28.388-4.8,20.593,2.4.008.13Z" transform="translate(-264.805 -278.112)" opacity="0.05"/>
    <path id="Path_215" data-name="Path 215" d="M294.4,332.878l-26.389,5.4-.6-.057-23.19-2.34V306.49l28.388-4.8,20.593,2.4.008.13v.061Z" transform="translate(-150.67 -186.187)" fill="#2d4d67"/>
    <path id="Path_216" data-name="Path 216" d="M331.75,336.956l-26.389,5.4-.6-.057V312.169l25.8-3.869Z" transform="translate(-188.02 -190.265)" opacity="0.1"/>
    <path id="Path_217" data-name="Path 217" d="M293.209,304.283l-.008.008-25.791,3.8-23.19-1.6,28.388-4.8,20.593,2.4.008.13Z" transform="translate(-150.67 -186.187)" opacity="0.05"/>
    <path id="Path_218" data-name="Path 218" d="M415.4,329.878l-26.389,5.4-.6-.057-23.19-2.341V303.49l28.388-4.8,20.593,2.4.008.13v.061Z" transform="translate(-225.321 -184.336)" fill="#004371"/>
    <path id="Path_219" data-name="Path 219" d="M452.75,333.956l-26.389,5.4-.6-.057V309.169l25.8-3.869Z" transform="translate(-262.671 -188.414)" opacity="0.1"/>
    <path id="Path_220" data-name="Path 220" d="M414.209,301.283l-.008.008-25.791,3.8-23.19-1.6,28.388-4.8,20.593,2.4.008.13Z" transform="translate(-225.321 -184.336)" opacity="0.05"/>
    <path id="Path_221" data-name="Path 221" d="M451.4,252.878l-26.389,5.4-.6-.057-23.19-2.34V226.49l28.388-4.8,20.593,2.4.008.13v.061Z" transform="translate(-247.531 -136.831)" fill="#2d4d67"/>
    <path id="Path_222" data-name="Path 222" d="M488.75,256.956l-26.389,5.4-.6-.057V232.169l25.8-3.869Z" transform="translate(-284.881 -140.909)" opacity="0.1"/>
    <path id="Path_223" data-name="Path 223" d="M450.209,224.283l-.008.008-25.791,3.8-23.19-1.6,28.388-4.8,20.593,2.4.008.13Z" transform="translate(-247.531 -136.831)" opacity="0.05"/>
    <path id="Path_224" data-name="Path 224" d="M699.211,231.9c-.28,2.49-2.18,4.5-2.884,6.895-1.057,3.62.766,7.508,3.279,10.342a22.9,22.9,0,0,0,15.943,7.562,6.86,6.86,0,0,0,2.635-.287,5.722,5.722,0,0,0,2-1.371,12.81,12.81,0,0,0,3.3-7.167,38.328,38.328,0,0,0,.092-8.01,4.532,4.532,0,0,0-.3-1.617,4.107,4.107,0,0,0-1.038-1.276,24.134,24.134,0,0,0-4.463-3.244,5.012,5.012,0,0,1-1.869-1.429,4.679,4.679,0,0,1-.578-1.712l-.494-2.513a4.927,4.927,0,0,0-.724-2.038c-.87-1.172-2.536-1.333-4-1.39l-5.363-.211c-1.666-.065-3.857-.544-5.485-.214-1.532.3-1.015,1.7-.739,2.976A21.527,21.527,0,0,1,699.211,231.9Z" transform="translate(-477.369 -175.927)" fill="#ffc0c6"/>
    <path id="Path_225" data-name="Path 225" d="M699.211,231.9c-.28,2.49-2.18,4.5-2.884,6.895-1.057,3.62.766,7.508,3.279,10.342a22.9,22.9,0,0,0,15.943,7.562,6.86,6.86,0,0,0,2.635-.287,5.722,5.722,0,0,0,2-1.371,12.81,12.81,0,0,0,3.3-7.167,38.328,38.328,0,0,0,.092-8.01,4.532,4.532,0,0,0-.3-1.617,4.107,4.107,0,0,0-1.038-1.276,24.134,24.134,0,0,0-4.463-3.244,5.012,5.012,0,0,1-1.869-1.429,4.679,4.679,0,0,1-.578-1.712l-.494-2.513a4.927,4.927,0,0,0-.724-2.038c-.87-1.172-2.536-1.333-4-1.39l-5.363-.211c-1.666-.065-3.857-.544-5.485-.214-1.532.3-1.015,1.7-.739,2.976A21.527,21.527,0,0,1,699.211,231.9Z" transform="translate(-477.369 -175.927)" opacity="0.1"/>
    <path id="Path_226" data-name="Path 226" d="M748.443,517.343l-2.275,24.945c-.594,6.543-1.2,13.112-2.363,19.57-.383,2.226-.873,4.44-1.433,6.635-1.555,6.094-3.811,12.051-4.539,18.3-.023.18-.042.383-.061.548a16.4,16.4,0,0,1-.766,4.06c-.383.954-.923,1.823-1.318,2.766a18.128,18.128,0,0,0-.984,6.01,25.909,25.909,0,0,0-8.921-3.064c-1.532-.226-3.2-.383-4.214-1.532-1.149-1.249-1.015-3.16-.824-4.838q.9-7.814,1.8-15.621a40.711,40.711,0,0,1,1.149-6.635c.207-.724.456-1.436.709-2.149.349-.981.7-1.961.965-2.969a35.746,35.746,0,0,0,.758-4.915c.617-5.24,1.36-10.469,2.011-15.705l.034-.276a160.587,160.587,0,0,0,1.505-23.906c-.031-1.184-.08-2.367-.157-3.555-.107-1.72-.264-2.632,1.149-3.708a26.8,26.8,0,0,1,5.447-2.8c.969-.421,11.641-4.214,11.875-3.379a20.791,20.791,0,0,1,.766,5.447,60.606,60.606,0,0,1-.314,6.769Z" transform="translate(-492.544 -349.231)" fill="#004371"/>
    <path id="Path_227" data-name="Path 227" d="M749.84,622.2c-.383,2.226-.873,4.44-1.433,6.635-1.555,6.094-3.811,12.051-4.539,18.3-.023.18-.042.383-.061.548-4.758-6.8-8.764-14.1-13.407-20.972.349-.981.7-1.961.965-2.969a35.773,35.773,0,0,0,.8-4.945c.617-5.24,1.36-10.469,2.011-15.705l.035-.276a16.263,16.263,0,0,0,1.149,3.221c3.118,6.336,10.526,9.538,14.15,15.6Q749.687,621.917,749.84,622.2Z" transform="translate(-498.579 -409.57)" opacity="0.1"/>
    <path id="Path_228" data-name="Path 228" d="M680.336,458.315a117.819,117.819,0,0,0,1.781,15.135l1.674,10.342c.915,5.669,1.873,11.45,4.555,16.525,2.007,3.8,4.9,7.041,7.512,10.446,6.428,8.374,11.258,17.862,17.352,26.481,1.774,2.505,4.306,5.217,7.328,4.692,1.984-.341,3.425-2,4.98-3.267,1.839-1.5,4.053-2.6,5.5-4.486s1.731-5.01-.23-6.351a10.587,10.587,0,0,0-2.245-.919c-3.038-1.149-5.007-4.122-6.255-7.125s-2.011-6.225-3.677-9.017c-3.624-6.064-11.036-9.266-14.154-15.606-1.747-3.547-1.915-7.661-2.045-11.6l-.341-10.078a7.338,7.338,0,0,1,.383-3.256c1.191-2.681,4.792-2.934,7.711-3.275a26.336,26.336,0,0,0,9.45-2.98,9.8,9.8,0,0,0,4.214-3.75,12.047,12.047,0,0,0,1.027-5.075l1.011-18.268a11.521,11.521,0,0,0-.383-4.669c-1.391-3.7-6.064-4.911-10.013-4.735-7.347.329-14.127,3.49-21.068,5.627a53.847,53.847,0,0,1-5.221,1.36c-1.532.31-3.448.184-4.918.682-2.635.889-2.57,6.658-2.942,9.048a75.941,75.941,0,0,0-.984,14.116Z" transform="translate(-467.679 -301.393)" fill="#004371"/>
    <path id="Path_229" data-name="Path 229" d="M780.364,709.3a4.683,4.683,0,0,1,1.027,2.517,85.87,85.87,0,0,1,1.456,15.211,2.521,2.521,0,0,0,.272,1.379,1.759,1.759,0,0,0,.716.575c1.873.893,4.045-.352,5.608-1.72,2.892-2.532,5.34-5.934,5.5-9.776a22.5,22.5,0,0,1,.1-2.965,12.335,12.335,0,0,1,1.843-3.972,33.725,33.725,0,0,0,3.064-6.826c.284-.9.475-2.023-.23-2.647a2.461,2.461,0,0,0-.831-.433L790.43,697.5c-.735-.272-2.559,4.413-2.846,4.926a3.878,3.878,0,0,1-2.835,2.252c-1.421.291-3.176-.13-4.531.594C777.92,706.5,779.065,707.993,780.364,709.3Z" transform="translate(-528.502 -467.982)" fill="#001c33"/>
    <path id="Path_230" data-name="Path 230" d="M733.142,733.52a2.578,2.578,0,0,0-.643-.816,2.886,2.886,0,0,0-1.3-.44c-1.609-.276-3.516-.456-4.631.743-1.042,1.122-.862,2.95-1.731,4.214a13.1,13.1,0,0,0-.889,1.149,4.315,4.315,0,0,0-.383,2.061c-.046,1.95-.092,3.907.046,5.853a8.169,8.169,0,0,0,1.406,4.623c1.64,2.053,4.6,2.348,7.217,2.478l2.126.111a4.215,4.215,0,0,0,1.739-.161,2.854,2.854,0,0,0,1.5-1.651c1.107-2.75-.643-5.711-1.724-8.469C734.632,740.039,734.855,736.519,733.142,733.52Z" transform="translate(-494.334 -489.31)" fill="#001c33"/>
    <path id="Path_231" data-name="Path 231" d="M691.032,183.51a1.734,1.734,0,0,1,.119-.82c.31-.548,1.122-.383,1.735-.245,2.463.621,5.06.057,7.6.2s5.4,1.413,5.907,3.9a18.467,18.467,0,0,0,4.685-4.811,5.772,5.772,0,0,0,1.222-3.524c-.138-1.823-1.666-3.187-3.064-4.344l-4.214-3.447a6.4,6.4,0,0,0-1.892-1.2,9.416,9.416,0,0,0-3.064-.172c-3.064,0-6.351-1.4-9.082,0a9.693,9.693,0,0,0-2.831,2.574l-3.765,4.459a2.379,2.379,0,0,0-.605,1.023,4.5,4.5,0,0,0,.272,1.628c.176,1-.253,2.061.077,3.018.548,1.586,2.478,1.812,3.658,2.724.437.337,1.126,1.49,1.651,1.475C690.362,185.93,691.006,184.245,691.032,183.51Z" transform="translate(-469.803 -141.58)" fill="#001c33"/>
    <circle id="Ellipse_41" data-name="Ellipse 41" cx="12.066" cy="12.066" r="12.066" transform="translate(215.553 30.948)" fill="#ffc0c6"/>
    <path id="Path_232" data-name="Path 232" d="M680.039,258.644a5.846,5.846,0,0,0-5.673-3.915,1.7,1.7,0,0,1-1.05-.134,1.453,1.453,0,0,1-.433-.536,21.347,21.347,0,0,1-1.758-4.16c-.192-.64-.456-1.394-1.1-1.559a1.481,1.481,0,0,0-1.4.613,13.414,13.414,0,0,1-1,1.26c-1.532,1.356-4.214.119-5.819,1.364-.264.2-.483.464-.766.651a3.486,3.486,0,0,1-.885.383A84.815,84.815,0,0,0,651,256.184c1.073,6.451,2.168,13.024,4.681,19.057,1.2,2.873,2.547,5.688,3.5,8.649,2.122,6.562,2.214,13.583,2.241,20.482,0,4.719,0,9.538-1.532,14a13.556,13.556,0,0,0-.862,3.064,3.187,3.187,0,0,0,1.08,2.865,3.642,3.642,0,0,0,1.666.586c2.647.383,5.313-.314,7.918-.919a213.114,213.114,0,0,1,21.214-3.448l11.913-1.532a6.969,6.969,0,0,0,2.467-.64c2.18-1.191,2.386-4.47,1.03-6.554-.647-1-1.563-1.819-2.111-2.877a2.672,2.672,0,0,1,.349-3.275c1.915-1.494,1.341-4.263,1.433-6.684q.383-10.159-.1-20.3a39.722,39.722,0,0,1-.069-4.214,37.182,37.182,0,0,1,1.314-7.033l3.62-14.25a7.43,7.43,0,0,0-4.47-2.873c-1.712-.429-3.5-.555-5.19-1.08-3.448-1.073-6.543-3.792-10.155-3.539a1.858,1.858,0,0,0-.789.192c-.812.463-.686,1.636-.735,2.57-.115,2.072-1.639,3.8-3.317,5.014s-3.6,2.1-5.145,3.478a2.3,2.3,0,0,0-.912,1.716Z" transform="translate(-449.594 -189.226)" fill="#9cc1da"/>
    <path id="Path_233" data-name="Path 233" d="M591.671,307.618a14.176,14.176,0,0,1-2.536,1.306,8.43,8.43,0,0,0-2.432,1.18,3.85,3.85,0,0,0-.847,1.046,4.647,4.647,0,0,0,4.283,6.922,9.337,9.337,0,0,0,3.168-.946l8.511-3.7c1.44-.624,3-1.352,3.677-2.769a.667.667,0,0,0,.084-.441.724.724,0,0,0-.352-.383,19.063,19.063,0,0,1-4.953-4.673c-.349-.475-.766-1.594-1.272-1.881C597.2,302.274,593.115,306.683,591.671,307.618Z" transform="translate(-409.034 -224.682)" fill="#ffc0c6"/>
    <path id="Path_234" data-name="Path 234" d="M806.8,307l3.137,3.585c.674.766,1.348,1.532,1.961,2.36a27.452,27.452,0,0,1,3.593,6.769,11.834,11.834,0,0,1,1.011,5.6,13.787,13.787,0,0,1-.785,2.846,35.192,35.192,0,0,1-2.134,5.133,29.223,29.223,0,0,1-2.386,3.589,83.924,83.924,0,0,1-7.956,9.1c-1.073,1.061-1.532,2.781-1.988,4.214-.862,2.647-2.911,4.712-4.892,6.665a13.477,13.477,0,0,1-2.1,1.808,6.819,6.819,0,0,1-3.831,1.088,4.215,4.215,0,0,1-1.72-.356,4.449,4.449,0,0,1-2.187-3.7,7.929,7.929,0,0,1,.659-3.968c1.8-3.988,6.424-5.715,9.691-8.626a31.627,31.627,0,0,0,4.83-5.968,20.7,20.7,0,0,0,2.44-4.279c.728-1.95.444-4.256,1.084-6.232.268-.839.766-1.594,1.038-2.425a2.871,2.871,0,0,0-.146-2.532,3.658,3.658,0,0,0-1.421-1.042c-2.088-1.057-4.424-2.421-4.823-4.731a5.064,5.064,0,0,1,.935-3.612,14.94,14.94,0,0,1,2.631-2.758C804.353,308.7,805.889,307.789,806.8,307Z" transform="translate(-533.185 -227.071)" fill="#ffc0c6"/>
    <path id="Path_235" data-name="Path 235" d="M573.387,322.8a5.805,5.805,0,0,0-2.364-2.815,4.352,4.352,0,0,0-3.448,0,13.069,13.069,0,0,0-3.018,1.823l-2.7,2a6.655,6.655,0,0,0-1.605,1.482,6.172,6.172,0,0,0-.835,2.3,16.692,16.692,0,0,0-.425,5.673c.429,3.064,2.268,5.715,4.29,8.044,1.264,1.448,2.827,2.911,4.75,2.976a2.179,2.179,0,0,0,2.1-1.057,2.616,2.616,0,0,0,.188-.942c.207-3.4-1.011-6.723-2.429-9.822a6.076,6.076,0,0,1-.766-2.639.712.712,0,0,1,.115-.444.743.743,0,0,1,.46-.226c1.942-.383,5.29,1.126,6.65-1.03C575.225,326.694,574.015,324.07,573.387,322.8Z" transform="translate(-392.765 -234.864)" fill="#ffc0c6"/>
    <path id="Path_236" data-name="Path 236" d="M689.385,173.6a1.786,1.786,0,0,1,.122-.82c.31-.552,1.122-.383,1.735-.245,2.463.621,5.06.057,7.6.2s5.393,1.413,5.907,3.9a18.59,18.59,0,0,0,4.685-4.811,5.791,5.791,0,0,0,1.222-3.528c-.138-1.823-1.67-3.187-3.064-4.34l-4.214-3.448a6.382,6.382,0,0,0-1.888-1.2,9.421,9.421,0,0,0-3.064-.172c-3.064,0-6.351-1.4-9.082,0a9.694,9.694,0,0,0-2.831,2.574l-3.769,4.459a2.386,2.386,0,0,0-.6,1.023,4.5,4.5,0,0,0,.272,1.628c.176,1-.253,2.061.077,3.015.548,1.59,2.478,1.816,3.658,2.727.437.337,1.126,1.49,1.651,1.475C688.707,176.02,689.35,174.335,689.385,173.6Z" transform="translate(-468.791 -135.466)" fill="#001c33"/>
    <path id="Path_237" data-name="Path 237" d="M623.788,277.751a5,5,0,0,0-1.264,1.176c-.441.67-.533,1.532-.912,2.222-.812,1.509-2.716,2.049-3.9,3.287a1.222,1.222,0,0,0-.383.644,1.421,1.421,0,0,0,.318.927L623.37,295c1.915.169,3.731-1.027,5.639-.866a5.687,5.687,0,0,0,2.122.092,6.172,6.172,0,0,0,1.36-.831c1.149-.72,2.651-.8,3.6-1.751a4.822,4.822,0,0,0,1.023-3.628,14.314,14.314,0,0,0-.341-3.333c-.843-3.448-3.482-6.106-5.137-9.163-.808-1.49-1.245-2.36-2.949-1.337S625.4,276.571,623.788,277.751Z" transform="translate(-428.821 -206.552)" fill="#9cc1da"/>
    <path id="Path_238" data-name="Path 238" d="M799.777,267.445a13.434,13.434,0,0,1,2.881,2.521c.87,1.122,1.364,2.5,2.2,3.651a39.885,39.885,0,0,0,2.835,3,22.894,22.894,0,0,1,3.271,5.328,79.91,79.91,0,0,1-7.4,8.351,2.372,2.372,0,0,1-1.126.735,1.8,1.8,0,0,1-1.586-.647c-.414-.429-.7-.965-1.1-1.413a5.65,5.65,0,0,0-3.5-1.689,24.026,24.026,0,0,0-3.965-.057,1.532,1.532,0,0,1-.846-.142,1.4,1.4,0,0,1-.46-.529c-1.532-2.635-1.053-5.945-.506-8.956l1.253-6.895a15.493,15.493,0,0,1,1.046-3.831c.475-1.015,1.532-2.739,2.842-2.432S798.671,266.648,799.777,267.445Z" transform="translate(-535.32 -200.793)" fill="#9cc1da"/>
    <path id="Path_239" data-name="Path 239" d="M324.4,255.878l-26.389,5.4-.6-.057-23.19-2.34V229.49l28.388-4.8,20.593,2.4.008.13v.061Z" transform="translate(-169.179 -138.682)" fill="#004371"/>
    <path id="Path_240" data-name="Path 240" d="M361.75,259.956l-26.389,5.4-.6-.057V235.169l25.8-3.869Z" transform="translate(-206.529 -142.76)" opacity="0.1"/>
    <path id="Path_241" data-name="Path 241" d="M323.209,227.283l-.008.008-25.791,3.8-23.19-1.6,28.388-4.8,20.593,2.4.008.13Z" transform="translate(-169.179 -138.682)" opacity="0.05"/>
    <path id="Path_242" data-name="Path 242" d="M360.4,179.878l-26.389,5.4-.6-.061-23.19-2.34V153.49l28.388-4.8,20.593,2.4.008.13v.061Z" transform="translate(-191.389 -91.794)" fill="#2d4d67"/>
    <path id="Path_243" data-name="Path 243" d="M397.75,183.956l-26.389,5.4-.6-.061V159.169l25.8-3.869Z" transform="translate(-228.739 -95.872)" opacity="0.1"/>
    <path id="Path_244" data-name="Path 244" d="M359.209,151.283l-.008.008-25.791,3.8-23.19-1.6,28.388-4.8,20.593,2.4.008.13Z" transform="translate(-191.389 -91.794)" opacity="0.05"/>
  </g>
</svg>
