<?xml version="1.0" standalone="no"?>
<!DOCTYPE svg PUBLIC "-//W3C//DTD SVG 20010904//EN"
 "http://www.w3.org/TR/2001/REC-SVG-20010904/DTD/svg10.dtd">
<svg version="1.0" xmlns="http://www.w3.org/2000/svg"
 width="181.000000pt" height="181.000000pt" viewBox="0 0 181.000000 181.000000"
 preserveAspectRatio="xMidYMid meet">

<g transform="translate(0.000000,181.000000) scale(0.100000,-0.100000)"
fill="#000000" stroke="none">
<path d="M0 905 l0 -905 905 0 905 0 0 905 0 905 -905 0 -905 0 0 -905z m810
249 c0 -4 -16 -24 -35 -45 -35 -40 -49 -73 -20 -49 27 22 16 -6 -24 -66 -23
-34 -35 -61 -29 -65 5 -3 -10 -30 -34 -60 -25 -30 -43 -59 -41 -65 5 -16 -76
-95 -114 -110 -18 -8 -62 -14 -97 -14 l-65 0 23 25 c12 13 31 43 41 65 11 24
21 36 25 29 4 -6 15 21 25 60 9 39 20 69 25 66 4 -2 14 23 24 56 9 33 21 57
26 54 5 -3 14 5 21 17 18 37 72 89 79 78 4 -7 22 -3 51 9 41 19 119 29 119 15z
m255 -40 c-36 -48 -47 -76 -20 -54 9 7 15 8 15 2 0 -12 -69 -114 -84 -124 -7
-5 -4 -8 7 -8 14 0 9 -12 -27 -59 -25 -32 -42 -61 -39 -65 11 -11 -69 -87
-112 -107 -26 -12 -63 -19 -104 -19 l-64 0 20 23 c12 12 31 41 43 65 14 27 26
39 30 32 4 -7 10 2 14 21 13 67 27 111 34 104 3 -3 13 20 22 52 8 32 19 57 24
55 4 -2 17 12 28 30 25 41 58 78 71 78 5 0 7 -7 4 -15 -5 -11 2 -10 31 4 52
26 62 29 105 30 l38 1 -36 -46z m299 14 c-17 -18 -37 -42 -45 -52 -13 -18 -12
-19 9 -14 12 4 22 4 22 1 0 -3 -20 -34 -45 -69 -24 -35 -40 -64 -34 -64 14 0
-15 -51 -45 -79 -14 -14 -26 -33 -26 -42 0 -27 -55 -85 -104 -108 -29 -15 -62
-21 -106 -21 -59 0 -62 1 -48 18 8 9 26 36 38 60 13 23 29 42 35 42 6 0 17 27
23 60 7 33 18 63 25 67 7 4 18 31 25 58 7 28 18 55 24 60 8 7 9 6 4 -2 -4 -7
-3 -13 2 -13 5 0 15 13 22 29 13 33 70 91 70 72 0 -9 6 -11 18 -6 58 25 92 34
126 35 l40 0 -30 -32z"/>
</g>
</svg>
